<svg width="566" height="504" viewBox="0 0 566 504" fill="none" xmlns="http://www.w3.org/2000/svg">
<circle cx="175" cy="276" r="175" fill="#FFFEE2"/>
<circle cx="388" cy="125" r="125" fill="#FFFEE2"/>
<path d="M143.589 316.42L130.469 316.7L123.809 316.81C121.579 316.86 119.339 316.81 117.109 316.86H116.669V316.41L116.609 305.22V304.72H117.109L130.349 304.78C134.769 304.78 139.179 304.89 143.589 304.95H143.869V305.22C143.869 307.12 143.779 309.01 143.739 310.87L143.589 316.42ZM143.589 316.42L143.449 310.77C143.449 308.9 143.339 307.06 143.319 305.23L143.589 305.5C139.179 305.55 134.769 305.66 130.349 305.67L117.109 305.73L117.609 305.23V316.42L117.159 315.97C119.339 315.97 121.519 315.97 123.709 316.03L130.289 316.14L143.589 316.42Z" fill="#EBEBEB"/>
<path d="M128.82 330.53L115.7 330.81L109.04 330.92C106.81 330.97 104.57 330.92 102.34 330.97H101.9V330.52L101.84 319.33V318.83H102.34L115.58 318.89C119.99 318.89 124.41 319 128.82 319.06H129.1V319.33C129.1 321.23 129.02 323.12 128.97 324.98L128.82 330.53ZM128.82 330.53L128.68 324.87C128.68 323.01 128.57 321.17 128.55 319.34L128.82 319.61C124.41 319.66 119.99 319.77 115.58 319.78L102.34 319.84L102.84 319.34L102.79 330.53L102.34 330.08C104.52 330.08 106.7 330.08 108.89 330.14L115.47 330.25L128.82 330.53Z" fill="#EBEBEB"/>
<path d="M393.94 247.61L380.82 247.89L374.16 248C371.93 248.05 369.7 248 367.46 248.05H367V247.6V236.42V235.92H367.5L380.74 235.98C385.16 235.98 389.57 236.09 393.98 236.15H394.26V236.42C394.26 238.32 394.17 240.2 394.13 242.07L393.94 247.61ZM393.94 247.61L393.8 242C393.8 240.14 393.69 238.3 393.67 236.47L393.94 236.74C389.53 236.79 385.12 236.9 380.7 236.9L367.46 236.97L367.96 236.47V247.66L367.51 247.21C369.7 247.21 371.87 247.21 374.06 247.27L380.64 247.38L393.94 247.61Z" fill="#EBEBEB"/>
<path d="M379.171 261.72L366.051 262L359.391 262.11C357.161 262.16 354.921 262.11 352.691 262.16H352.251V261.71L352.191 250.52V250H352.691L365.931 250.06C370.351 250.06 374.761 250.17 379.171 250.22H379.451V250.49C379.451 252.39 379.361 254.27 379.311 256.14L379.171 261.72ZM379.171 261.72L379.031 256.06C379.031 254.2 378.921 252.36 378.901 250.53L379.171 250.8C374.761 250.8 370.351 250.96 365.931 250.96L352.691 251.03L353.191 250.53L353.141 261.72L352.691 261.27C354.871 261.27 357.051 261.27 359.241 261.33L365.821 261.44L379.171 261.72Z" fill="#EBEBEB"/>
<path d="M364.461 247.61L351.331 247.89L344.671 248C342.451 248.05 340.211 248 337.981 248.05H337.531V247.6V236.41V235.91H338.031L351.271 235.97C355.681 235.97 360.101 236.08 364.511 236.14H364.781V236.41C364.781 238.31 364.701 240.19 364.651 242.06L364.461 247.61ZM364.461 247.61L364.321 241.95C364.271 240.09 364.201 238.25 364.191 236.42L364.461 236.69C360.051 236.74 355.631 236.85 351.221 236.85L337.981 236.92L338.481 236.42L338.421 247.61L337.981 247.16C340.161 247.16 342.341 247.16 344.521 247.22L351.101 247.33L364.461 247.61Z" fill="#EBEBEB"/>
<path d="M529.66 330.53L516.53 330.81L509.87 330.92C507.65 330.97 505.41 330.92 503.18 330.97H502.73V330.52L502.68 319.33V318.83H503.18L516.42 318.89C520.83 318.89 525.25 319 529.66 319.06H529.93V319.33C529.93 321.23 529.85 323.12 529.8 324.98L529.66 330.53ZM529.66 330.53L529.52 324.87C529.52 323.01 529.4 321.17 529.39 319.34L529.66 319.61C525.25 319.66 520.83 319.77 516.42 319.78L503.18 319.84L503.68 319.34L503.62 330.53L503.18 330.08C505.36 330.08 507.54 330.08 509.72 330.14L516.3 330.25L529.66 330.53Z" fill="#EBEBEB"/>
<path d="M514.89 56.8502L501.76 57.1302L495.1 57.2402C492.88 57.2402 490.64 57.2402 488.41 57.3002H488V56.8502V45.6602V45.1602H488.51L501.75 45.2202C506.16 45.2202 510.57 45.3402 514.99 45.3902H515.26V45.6602C515.26 47.5602 515.17 49.4502 515.13 51.3102L514.89 56.8502ZM514.89 56.8502L514.75 51.2002C514.7 49.3302 514.63 47.4902 514.61 45.6602L514.89 45.9302C510.47 45.9302 506.06 46.0902 501.65 46.1002L488.41 46.1602L488.91 45.6602L488.85 56.8502L488.41 56.4002C490.59 56.4002 492.76 56.4002 494.95 56.4602L501.53 56.5702L514.89 56.8502Z" fill="#EBEBEB"/>
<path d="M529.66 71.0001L516.53 71.2801L509.87 71.3901C507.65 71.4401 505.41 71.3901 503.18 71.4401H502.73V71.0001L502.68 59.8101V59.3101H503.18L516.42 59.3701C520.83 59.3701 525.25 59.4901 529.66 59.5401H529.93V59.8101C529.93 61.7101 529.85 63.6001 529.8 65.4601L529.66 71.0001ZM529.66 71.0001L529.52 65.3501C529.52 63.4801 529.4 61.6401 529.39 59.8101L529.66 60.0801C525.25 60.1301 520.83 60.2401 516.42 60.2501L503.18 60.3101L503.68 59.8101L503.62 71.0001L503.18 70.5501C505.36 70.5501 507.54 70.5501 509.72 70.6101L516.3 70.7201L529.66 71.0001Z" fill="#EBEBEB"/>
<path d="M143.589 56.8502L130.469 57.1302L123.809 57.2402C121.579 57.2402 119.339 57.2402 117.109 57.3002H116.669V56.8502L116.609 45.6602V45.1602H117.109L130.349 45.2202C134.769 45.2202 139.179 45.3402 143.589 45.3902H143.869V45.6602C143.869 47.5602 143.779 49.4502 143.739 51.3102L143.589 56.8502ZM143.589 56.8502L143.449 51.2002C143.449 49.3302 143.339 47.4902 143.319 45.6602L143.589 45.9302C139.179 45.9302 134.769 46.0902 130.349 46.1002L117.109 46.1602L117.609 45.6602V56.8502L117.159 56.4002C119.339 56.4002 121.519 56.4002 123.709 56.4602L130.289 56.5702L143.589 56.8502Z" fill="#EBEBEB"/>
<path d="M181.69 99.1802H124.27V136.67H181.69V99.1802Z" fill="#DBDBDB"/>
<path d="M181.69 138.87H124.27V176.36H181.69V138.87Z" fill="#EBEBEB"/>
<path d="M135.541 146.07H129.961V151.65H135.541V146.07Z" fill="white"/>
<path d="M142.279 146.07H136.699V151.65H142.279V146.07Z" fill="#DBDBDB"/>
<path d="M149.029 146.07H143.449V151.65H149.029V146.07Z" fill="white"/>
<path d="M155.771 146.07H150.191V151.65H155.771V146.07Z" fill="white"/>
<path d="M162.521 146.07H156.941V151.65H162.521V146.07Z" fill="white"/>
<path d="M169.26 146.07H163.68V151.65H169.26V146.07Z" fill="white"/>
<path d="M176.01 146.07H170.43V151.65H176.01V146.07Z" fill="white"/>
<path d="M135.541 152.87H129.961V158.45H135.541V152.87Z" fill="white"/>
<path d="M142.279 152.87H136.699V158.45H142.279V152.87Z" fill="white"/>
<path d="M149.029 152.87H143.449V158.45H149.029V152.87Z" fill="white"/>
<path d="M155.771 152.87H150.191V158.45H155.771V152.87Z" fill="white"/>
<path d="M162.521 152.87H156.941V158.45H162.521V152.87Z" fill="#DBDBDB"/>
<path d="M169.26 152.87H163.68V158.45H169.26V152.87Z" fill="white"/>
<path d="M176.01 152.87H170.43V158.45H176.01V152.87Z" fill="white"/>
<path d="M135.541 159.66H129.961V165.24H135.541V159.66Z" fill="white"/>
<path d="M142.279 159.66H136.699V165.24H142.279V159.66Z" fill="white"/>
<path d="M149.029 159.66H143.449V165.24H149.029V159.66Z" fill="white"/>
<path d="M155.771 159.66H150.191V165.24H155.771V159.66Z" fill="white"/>
<path d="M162.521 159.66H156.941V165.24H162.521V159.66Z" fill="white"/>
<path d="M169.26 159.66H163.68V165.24H169.26V159.66Z" fill="white"/>
<path d="M176.01 159.66H170.43V165.24H176.01V159.66Z" fill="white"/>
<path d="M135.541 166.45H129.961V172.03H135.541V166.45Z" fill="white"/>
<path d="M142.279 166.45H136.699V172.03H142.279V166.45Z" fill="white"/>
<path d="M149.029 166.45H143.449V172.03H149.029V166.45Z" fill="white"/>
<path d="M155.771 166.45H150.191V172.03H155.771V166.45Z" fill="white"/>
<path d="M162.521 166.45H156.941V172.03H162.521V166.45Z" fill="white"/>
<path d="M169.26 166.45H163.68V172.03H169.26V166.45Z" fill="white"/>
<path d="M176.01 166.45H170.43V172.03H176.01V166.45Z" fill="white"/>
<path d="M128.7 134.89H126.52V140.65H128.7V134.89Z" fill="#C7C7C7"/>
<path d="M133.782 134.89H131.602V140.65H133.782V134.89Z" fill="#C7C7C7"/>
<path d="M138.848 134.89H136.668V140.65H138.848V134.89Z" fill="#C7C7C7"/>
<path d="M143.93 134.89H141.75V140.65H143.93V134.89Z" fill="#C7C7C7"/>
<path d="M149 134.89H146.82V140.65H149V134.89Z" fill="#C7C7C7"/>
<path d="M154.071 134.89H151.891V140.65H154.071V134.89Z" fill="#C7C7C7"/>
<path d="M159.149 134.89H156.969V140.65H159.149V134.89Z" fill="#C7C7C7"/>
<path d="M164.219 134.89H162.039V140.65H164.219V134.89Z" fill="#C7C7C7"/>
<path d="M169.301 134.89H167.121V140.65H169.301V134.89Z" fill="#C7C7C7"/>
<path d="M174.371 134.89H172.191V140.65H174.371V134.89Z" fill="#C7C7C7"/>
<path d="M179.442 134.89H177.262V140.65H179.442V134.89Z" fill="#C7C7C7"/>
<path d="M256.328 46.3501V213.14H375.668V46.3501H256.328ZM372.118 209.59H259.878V49.9001H372.118V209.59Z" fill="#EBEBEB"/>
<path d="M372.119 49.9004H259.879V209.59H372.119V49.9004Z" fill="#A6A6A6"/>
<path d="M356.941 145.47L357.811 147.24L359.751 147.52L358.341 148.89L358.671 150.82L356.941 149.91L355.201 150.82L355.531 148.89L354.121 147.52L356.071 147.24L356.941 145.47Z" fill="#DBDBDB"/>
<path d="M303.662 141.23L304.532 142.99L306.472 143.28L305.062 144.65L305.402 146.58L303.662 145.67L301.922 146.58L302.252 144.65L300.852 143.28L302.792 142.99L303.662 141.23Z" fill="#DBDBDB"/>
<path d="M280.298 184.57L281.168 186.33L283.118 186.61L281.708 187.98L282.038 189.92L280.298 189L278.568 189.92L278.898 187.98L277.488 186.61L279.438 186.33L280.298 184.57Z" fill="#DBDBDB"/>
<path d="M356.939 95.98L357.469 97.07L358.669 97.24L357.809 98.09L358.009 99.29L356.939 98.72L355.859 99.29L356.069 98.09L355.199 97.24L356.399 97.07L356.939 95.98Z" fill="#DBDBDB"/>
<path d="M273.99 135.83L274.53 136.91L275.73 137.09L274.86 137.94L275.06 139.13L273.99 138.57L272.92 139.13L273.12 137.94L272.25 137.09L273.45 136.91L273.99 135.83Z" fill="#DBDBDB"/>
<path d="M343.691 182.92L344.231 184L345.431 184.18L344.561 185.03L344.771 186.22L343.691 185.66L342.621 186.22L342.831 185.03L341.961 184.18L343.161 184L343.691 182.92Z" fill="#DBDBDB"/>
<path d="M308.209 102.86L308.739 103.95L309.939 104.12L309.079 104.97L309.279 106.16L308.209 105.6L307.129 106.16L307.339 104.97L306.469 104.12L307.669 103.95L308.209 102.86Z" fill="#DBDBDB"/>
<path d="M299.131 118.13C298.063 119.992 296.548 121.559 294.723 122.69C292.898 123.82 290.82 124.478 288.677 124.605C286.534 124.732 284.393 124.323 282.447 123.415C280.502 122.507 278.813 121.129 277.533 119.406C276.253 117.682 275.423 115.667 275.117 113.542C274.81 111.417 275.038 109.25 275.779 107.235C276.52 105.22 277.751 103.421 279.361 102.001C280.971 100.581 282.909 99.5839 285.001 99.1001C283.364 99.8493 281.914 100.955 280.759 102.336C279.604 103.717 278.772 105.338 278.323 107.082C277.875 108.826 277.821 110.647 278.167 112.414C278.512 114.181 279.248 115.849 280.321 117.295C281.393 118.741 282.775 119.93 284.366 120.774C285.956 121.617 287.715 122.095 289.514 122.172C291.313 122.25 293.106 121.924 294.763 121.219C296.42 120.515 297.898 119.449 299.091 118.1L299.131 118.13Z" fill="#DBDBDB"/>
<path d="M317.77 50.8203H314.23V211.36H317.77V50.8203Z" fill="#EBEBEB"/>
<path d="M378.881 53.52H253.121V58.45H378.881V53.52Z" fill="#EBEBEB"/>
<path d="M378.881 59.0703H253.121V64.0003H378.881V59.0703Z" fill="#EBEBEB"/>
<path d="M378.881 64.6201H253.121V69.5501H378.881V64.6201Z" fill="#EBEBEB"/>
<path d="M378.881 70.1699H253.121V75.0999H378.881V70.1699Z" fill="#EBEBEB"/>
<path d="M378.881 75.7202H253.121V80.6502H378.881V75.7202Z" fill="#EBEBEB"/>
<path d="M378.881 81.27H253.121V86.2H378.881V81.27Z" fill="#EBEBEB"/>
<path d="M368.359 52.52H367.469V148.55H368.359V52.52Z" fill="#DBDBDB"/>
<path d="M369.49 152.67H366.34L367.13 148.15H368.7L369.49 152.67Z" fill="#DBDBDB"/>
<path d="M371.55 52.52H370.66V172.77H371.55V52.52Z" fill="#DBDBDB"/>
<path d="M372.681 176.09H369.531L370.321 171.57H371.891L372.681 176.09Z" fill="#DBDBDB"/>
<path d="M384.381 45.6602H247.621V55.9802H384.381V45.6602Z" fill="#DBDBDB"/>
<path d="M491.98 250.83H399.84V378.33H491.98V250.83Z" fill="#DBDBDB"/>
<path d="M496.431 246.1H395.371V250.83H496.431V246.1Z" fill="#EBEBEB"/>
<path d="M528.21 246.1H496.43V250.83H528.21V246.1Z" fill="#DBDBDB"/>
<path d="M523.189 250.83H491.969V378.33H523.189V250.83Z" fill="#EBEBEB"/>
<path d="M482.052 309.84H409.762V269H482.052V309.84ZM410.002 309.62H481.852V269.21H410.002V309.62Z" fill="#A6A6A6"/>
<path d="M449.879 280.92H435.809V289.01H449.879V280.92Z" fill="#A6A6A6"/>
<path d="M454.159 288.51H439.859V281.42H454.159V288.51ZM440.079 288.29H453.939V281.65H440.079V288.29Z" fill="#A6A6A6"/>
<path d="M482.052 361.17H409.762V320.32H482.052V361.17ZM410.002 361H481.852V320.54H410.002V361Z" fill="#A6A6A6"/>
<path d="M449.879 332.26H435.809V340.35H449.879V332.26Z" fill="#A6A6A6"/>
<path d="M454.159 339.85H439.859V332.76H454.159V339.85ZM440.079 339.62H453.939V333H440.079V339.62Z" fill="#A6A6A6"/>
<path d="M316 462.32C425.115 462.32 513.57 453.401 513.57 442.4C513.57 431.398 425.115 422.48 316 422.48C206.885 422.48 118.43 431.398 118.43 442.4C118.43 453.401 206.885 462.32 316 462.32Z" fill="#EBEBEB"/>
<path d="M101.469 378.18L155.099 377.94L208.729 377.85L315.999 377.68L423.269 377.85L476.899 377.94L530.529 378.18L476.899 378.42L423.269 378.51L315.999 378.68L208.729 378.51L155.099 378.42L101.469 378.18Z" fill="#263238"/>
<path d="M296.09 301.92L298.66 317.29L316.02 411.07H318.82L306.19 317.29L304.33 301.92H296.09Z" fill="#DBDBDB"/>
<path d="M304.33 301.92H296.09L298.66 317.29H306.19L304.33 301.92Z" fill="#A6A6A6"/>
<path d="M241.559 411.07H244.359L261.729 317.29L264.289 301.92H256.059L254.189 317.29L241.559 411.07Z" fill="#DBDBDB"/>
<path d="M256.061 301.92L254.191 317.29H261.731L264.291 301.92H256.061Z" fill="#A6A6A6"/>
<path d="M189.48 411.07H192.28L209.64 317.29L212.21 301.92H203.97L202.11 317.29L189.48 411.07Z" fill="#DBDBDB"/>
<path d="M202.109 317.29H209.639L212.209 301.92H203.969L202.109 317.29Z" fill="#A6A6A6"/>
<path d="M193.922 309.14H321.162V295.74H273.532L257.522 202.6H198.772L193.922 309.14Z" fill="#DBDBDB"/>
<path d="M193.922 309.14H200.862L205.382 202.6H198.772L193.922 309.14Z" fill="#A6A6A6"/>
<path d="M327.168 432C324.658 432.32 256.008 416.31 253.778 414.14C253.508 413.91 256.778 400.72 256.778 400.72C257.138 398.94 259.308 392.96 262.068 385.72L305.018 395.72L301.588 403.12C301.588 403.12 310.148 408.92 317.508 414.44C322.048 417.83 325.968 420.88 326.808 421.88C328.998 424.47 329.688 431.66 327.168 432Z" fill="#EBEBEB"/>
<path d="M327.367 432.15C324.767 432.42 255.567 416.91 253.307 414.65C252.437 413.8 258.577 391.51 258.607 391.38L302.897 401.17L302.717 401.92C302.717 401.92 324.997 419 327.187 421.73C329.377 424.46 329.997 431.89 327.367 432.15Z" fill="#A6A6A6"/>
<path d="M327.191 429.3C315.591 426.4 268.521 415.79 256.841 413.8C256.741 413.8 256.731 413.85 256.841 413.88C268.281 417 315.431 427.23 327.171 429.49C327.401 429.53 327.441 429.36 327.191 429.3Z" fill="#263238"/>
<path d="M306.27 401.7C301.87 399.82 296.1 399.26 291.86 401.7C291.7 401.8 291.86 402.03 291.99 402.02C296.694 401.588 301.431 401.662 306.12 402.24C306.18 402.234 306.238 402.21 306.284 402.171C306.331 402.132 306.365 402.08 306.381 402.022C306.397 401.963 306.395 401.901 306.375 401.844C306.356 401.786 306.319 401.736 306.27 401.7Z" fill="#263238"/>
<path d="M309.139 404.44C304.739 402.55 298.969 402 294.719 404.44C294.559 404.53 294.719 404.77 294.859 404.75C299.568 404.333 304.308 404.417 308.999 405C309.064 404.998 309.127 404.975 309.178 404.934C309.229 404.893 309.265 404.837 309.281 404.773C309.297 404.71 309.291 404.643 309.266 404.583C309.24 404.523 309.196 404.473 309.139 404.44Z" fill="#263238"/>
<path d="M312 407.17C307.6 405.29 301.83 404.74 297.59 407.22C297.43 407.31 297.59 407.54 297.72 407.53C302.425 407.098 307.162 407.172 311.85 407.75C311.926 407.765 312.004 407.751 312.069 407.71C312.134 407.669 312.181 407.605 312.2 407.531C312.219 407.457 312.209 407.378 312.172 407.311C312.135 407.244 312.074 407.193 312 407.17Z" fill="#263238"/>
<path d="M314.491 393C313.241 390.12 309.631 390.48 307.351 391.66C303.485 393.754 300.237 396.827 297.931 400.57C297.919 400.586 297.911 400.605 297.908 400.625C297.905 400.645 297.907 400.666 297.914 400.685C297.921 400.704 297.932 400.72 297.947 400.734C297.963 400.747 297.981 400.756 298.001 400.76C297.977 400.849 297.975 400.942 297.994 401.032C298.013 401.122 298.053 401.207 298.11 401.279C298.167 401.35 298.241 401.408 298.324 401.446C298.408 401.485 298.499 401.503 298.591 401.5C302.691 400.94 307.151 400.86 310.961 399.07C313.191 398.06 315.671 395.77 314.491 393ZM304.641 399.39C302.641 399.71 300.641 399.93 298.641 400.32C300.491 398.59 302.251 396.78 304.261 395.24C305.213 394.48 306.215 393.786 307.261 393.16C308.901 392.22 314.901 390.79 312.961 395.64C311.891 398.35 307.001 399.05 304.641 399.43V399.39Z" fill="#263238"/>
<path d="M286.528 396.8C289.948 399.26 294.318 400.15 298.248 401.44C298.337 401.463 298.431 401.464 298.521 401.443C298.61 401.422 298.694 401.38 298.765 401.32C298.835 401.261 298.89 401.185 298.925 401.1C298.961 401.015 298.975 400.922 298.968 400.83C299.038 400.83 299.108 400.75 299.068 400.66C297.486 396.554 294.851 392.936 291.428 390.17C289.428 388.6 285.918 387.58 284.168 390.17C282.418 392.76 284.528 395.37 286.528 396.8ZM285.188 393.07C284.188 387.95 289.808 390.45 291.248 391.67C292.17 392.472 293.035 393.338 293.838 394.26C295.477 396.177 297.013 398.179 298.438 400.26C296.548 399.5 294.608 398.92 292.688 398.26C290.398 397.45 285.748 395.89 285.188 393.07Z" fill="#263238"/>
<path d="M305.078 401.54L257.198 390.82C257.198 390.82 296.688 299.21 293.198 294.58C291.458 292.26 247.098 291.58 232.998 279.63C214.668 264.1 226.998 237.36 226.998 237.36L281.998 237.28C281.998 237.28 279.678 249.28 281.608 250.82C282.888 251.82 338.218 256.82 344.708 276.71C352.548 301.1 305.078 401.54 305.078 401.54Z" fill="#37474F"/>
<path d="M306.45 392.88C305.19 392.35 292.82 388.88 290.06 388.14C284.48 386.71 278.9 385.31 273.29 383.99C270.37 383.31 264.11 381.81 263.74 381.85C263.7 381.85 263.662 381.866 263.634 381.894C263.606 381.922 263.59 381.961 263.59 382C263.59 382.04 263.606 382.078 263.634 382.106C263.662 382.135 263.7 382.15 263.74 382.15C269.2 383.85 274.74 385.34 280.24 386.84C285.74 388.34 304.73 392.98 306.37 393.17C306.5 393.18 306.63 393 306.45 392.88Z" fill="#263238"/>
<path d="M301.67 290.48C300.67 289.63 299.18 289.48 297.93 289.31L276.48 285.72C269.79 284.6 263.06 283.6 256.4 282.31C250.89 281.25 245.28 279.82 240.51 276.83C235.84 273.89 232.383 269.368 230.77 264.09C229.254 258.787 228.825 253.233 229.51 247.76C229.63 246.43 229.88 245.11 230.13 243.76C230.13 243.739 230.122 243.719 230.107 243.704C230.092 243.689 230.072 243.68 230.05 243.68C230.029 243.68 230.009 243.689 229.994 243.704C229.979 243.719 229.97 243.739 229.97 243.76C228.16 253.91 227.97 265.68 235.6 273.76C239.31 277.7 244.41 280.01 249.6 281.51C255.47 283.2 261.6 284.01 267.6 285.01L289.05 288.59C292.49 289.16 295.99 289.59 299.4 290.32C300.089 290.407 300.736 290.696 301.26 291.15C301.509 291.506 301.667 291.916 301.721 292.347C301.775 292.777 301.723 293.214 301.57 293.62C301.22 295.31 300.77 296.97 300.28 298.62C296.38 311.93 270.04 375.48 269.28 376.94C269.27 376.972 269.272 377.007 269.285 377.038C269.299 377.069 269.323 377.094 269.353 377.109C269.384 377.124 269.418 377.127 269.451 377.118C269.483 377.109 269.512 377.088 269.53 377.06C276.09 365.38 295.18 316.3 299.53 303.71C300.679 300.505 301.618 297.228 302.34 293.9C302.57 292.72 302.71 291.37 301.67 290.48Z" fill="#263238"/>
<path d="M422.08 432.74C419.6 433.56 348.67 433.22 345.98 431.49C344.98 430.86 344.4 420.49 344.09 408.04C344.09 407.91 344.09 407.78 344.09 407.65L389.85 407.36V408.13C389.85 408.13 416.94 420.39 419.7 422.6C422.46 424.81 424.56 431.93 422.08 432.74Z" fill="#A6A6A6"/>
<path d="M421.289 430C409.289 429.65 361.089 429.36 349.239 429.92C349.149 429.92 349.149 429.99 349.239 430C361.079 430.6 409.329 430.5 421.289 430.2C421.539 430.18 421.539 430 421.289 430Z" fill="#263238"/>
<path d="M394.929 407.51C390.229 406.61 384.479 407.31 380.869 410.64C380.729 410.77 380.869 410.96 381.059 410.92C385.562 409.491 390.205 408.549 394.909 408.11C394.989 408.113 395.066 408.084 395.124 408.029C395.182 407.975 395.217 407.9 395.219 407.82C395.222 407.741 395.193 407.663 395.138 407.605C395.084 407.547 395.009 407.513 394.929 407.51Z" fill="#263238"/>
<path d="M398.318 409.57C393.618 408.67 387.858 409.37 384.248 412.7C384.108 412.83 384.298 413.02 384.448 412.98C388.951 411.551 393.594 410.609 398.298 410.17C398.378 410.173 398.455 410.144 398.513 410.09C398.571 410.035 398.605 409.96 398.608 409.88C398.611 409.801 398.582 409.723 398.527 409.665C398.473 409.607 398.398 409.573 398.318 409.57Z" fill="#263238"/>
<path d="M401.709 411.63C397.009 410.73 391.249 411.43 387.639 414.76C387.499 414.89 387.639 415.08 387.839 415.04C392.341 413.609 396.984 412.667 401.689 412.23C401.728 412.231 401.767 412.225 401.804 412.211C401.841 412.197 401.875 412.176 401.904 412.149C401.932 412.122 401.956 412.09 401.972 412.054C401.988 412.018 401.997 411.979 401.999 411.94C402 411.901 401.993 411.861 401.98 411.824C401.966 411.787 401.945 411.754 401.918 411.725C401.891 411.696 401.859 411.673 401.823 411.657C401.787 411.64 401.748 411.631 401.709 411.63Z" fill="#263238"/>
<path d="M401.101 397.3C399.271 394.74 395.821 395.87 393.851 397.51C390.515 400.382 387.997 404.083 386.551 408.24C386.551 408.33 386.551 408.39 386.661 408.41C386.658 408.501 386.677 408.591 386.715 408.674C386.753 408.756 386.809 408.829 386.88 408.886C386.95 408.943 387.033 408.983 387.122 409.003C387.211 409.023 387.303 409.022 387.391 409C391.281 407.58 395.621 406.55 398.961 404C400.911 402.48 402.841 399.71 401.101 397.3ZM392.851 405.64C390.961 406.39 389.031 407.03 387.161 407.85C388.591 405.76 389.931 403.62 391.561 401.67C392.34 400.728 393.178 399.836 394.071 399C395.481 397.73 401.071 395.05 400.181 400.2C399.711 403 395.111 404.76 392.851 405.64Z" fill="#263238"/>
<path d="M374.597 407C378.467 408.67 382.917 408.61 387.047 409C387.138 409.001 387.228 408.981 387.31 408.94C387.392 408.9 387.463 408.841 387.517 408.767C387.572 408.694 387.608 408.61 387.624 408.52C387.64 408.43 387.634 408.338 387.607 408.25C387.626 408.243 387.643 408.232 387.657 408.217C387.671 408.203 387.681 408.185 387.688 408.166C387.694 408.147 387.697 408.127 387.695 408.107C387.693 408.087 387.687 408.068 387.677 408.05C385.243 404.385 381.892 401.42 377.957 399.45C375.647 398.34 372.027 398.1 370.877 401.02C369.787 403.77 372.337 406 374.597 407ZM372.487 403.64C370.387 398.86 376.437 400.09 378.107 400.98C379.184 401.572 380.216 402.241 381.197 402.98C383.207 404.513 385.137 406.148 386.977 407.88C384.977 407.55 382.977 407.39 380.927 407.14C378.517 406.76 373.637 406.23 372.487 403.59V403.64Z" fill="#263238"/>
<path d="M394.16 407.85H342.58C342.58 407.85 320.5 320.26 316.58 315.28C311.37 308.62 238.48 308.78 222.85 287.08C208.85 267.6 221.76 237.32 221.76 237.32H275.63C274.598 243.6 272.96 249.766 270.74 255.73C270.74 255.73 337.23 267.99 355.86 288.35C368.45 302.07 394.16 407.85 394.16 407.85Z" fill="#37474F"/>
<path d="M280.391 251.92C278.789 252.279 277.223 252.781 275.711 253.42C274.131 254.033 272.574 254.7 271.041 255.42C268.043 256.906 265.128 258.555 262.311 260.36C262.221 260.41 262.311 260.53 262.401 260.49C265.401 258.94 268.471 257.55 271.561 256.22L276.011 254.3C277.511 253.65 279.101 253.1 280.521 252.3C280.548 252.269 280.567 252.232 280.575 252.192C280.583 252.152 280.58 252.111 280.567 252.072C280.554 252.033 280.531 251.999 280.5 251.972C280.469 251.945 280.431 251.927 280.391 251.92Z" fill="#263238"/>
<path d="M277.078 238.32C276.448 240.84 275.888 243.37 275.168 245.86C274.838 247.01 274.518 248.17 274.078 249.28C273.718 250.22 273.158 251.28 272.078 251.5C270.828 251.74 270.468 250.67 270.568 249.64C270.668 248.61 270.978 247.33 271.208 246.2C271.468 244.89 271.738 243.59 271.968 242.27C272.088 241.62 272.748 238.55 272.758 238.51C272.768 238.47 272.758 238.39 272.688 238.32C272.672 238.308 272.653 238.301 272.633 238.301C272.613 238.301 272.594 238.308 272.578 238.32C272.164 239.153 271.851 240.032 271.648 240.94C271.298 242.14 270.958 243.34 270.648 244.55C270.338 245.76 270.038 246.98 269.738 248.19C269.425 249.089 269.343 250.051 269.498 250.99C269.613 251.439 269.869 251.838 270.23 252.128C270.591 252.419 271.036 252.584 271.498 252.6C271.498 252.68 271.398 252.76 271.368 252.84C271.258 253.09 271.178 253.35 271.078 253.61C270.978 253.87 270.898 254.13 270.818 254.39C270.738 254.65 270.768 254.65 270.748 254.78C270.728 254.91 270.748 255.07 270.748 255.22C270.739 255.269 270.748 255.32 270.773 255.363C270.798 255.406 270.837 255.439 270.884 255.455C270.931 255.472 270.982 255.472 271.029 255.454C271.075 255.437 271.114 255.404 271.138 255.36C271.198 255.23 271.298 255.13 271.368 255.01C271.444 254.874 271.505 254.73 271.548 254.58C271.638 254.33 271.708 254.08 271.778 253.82C271.848 253.56 271.918 253.31 271.958 253.06C271.985 252.905 272.001 252.748 272.008 252.59C272.533 252.546 273.036 252.355 273.458 252.04C274.177 251.438 274.702 250.638 274.968 249.74C275.348 248.74 275.638 247.61 275.968 246.54C276.74 243.889 277.276 241.175 277.568 238.43C277.583 238.365 277.571 238.297 277.535 238.241C277.5 238.185 277.443 238.145 277.378 238.13C277.313 238.116 277.245 238.127 277.189 238.163C277.133 238.199 277.093 238.255 277.078 238.32Z" fill="#263238"/>
<path d="M388.817 398.61C387.446 398.456 386.067 398.373 384.687 398.36C383.237 398.3 381.777 398.23 380.327 398.19C377.477 398.11 374.617 398.05 371.757 398.04C366.007 398.04 360.247 398.04 354.487 398.12C351.487 398.12 345.057 398.25 344.697 398.36C344.658 398.367 344.622 398.389 344.599 398.422C344.575 398.454 344.566 398.495 344.572 398.535C344.579 398.575 344.601 398.61 344.634 398.634C344.667 398.657 344.708 398.667 344.747 398.66C350.457 398.96 356.177 399.05 361.897 399.16C367.617 399.27 373.327 399.35 379.037 399.25C380.617 399.25 382.197 399.17 383.777 399.12C385.447 399.14 387.116 399.07 388.777 398.91C388.937 398.89 388.997 398.64 388.817 398.61Z" fill="#263238"/>
<path d="M322.61 316C322.136 314.413 321.406 312.913 320.45 311.56C319.301 310.417 317.827 309.656 316.23 309.38C302.48 305.62 288.29 303.93 274.31 301.28C267.411 300.03 260.595 298.36 253.9 296.28C247.108 294.257 240.617 291.335 234.6 287.59C231.662 285.701 229.226 283.127 227.5 280.09C225.917 277.158 224.79 274.002 224.16 270.73C222.675 263.251 222.695 255.551 224.22 248.08C224.59 246.219 225.061 244.38 225.63 242.57C225.63 242.45 225.49 242.41 225.45 242.52C222.869 249.717 221.81 257.372 222.34 265C222.84 271.63 224.45 278.61 228.74 283.87C230.961 286.434 233.653 288.549 236.67 290.1C239.809 291.832 243.056 293.361 246.39 294.68C252.883 297.219 259.572 299.226 266.39 300.68C280.34 303.77 294.57 305.33 308.52 308.44C310.24 308.82 311.95 309.22 313.66 309.66C315.421 309.951 317.13 310.5 318.73 311.29C320.38 312.29 320.93 314.38 321.58 316.09C322.29 317.98 344.72 393.86 345.22 395.77C345.3 396.07 345.77 395.93 345.69 395.62C343.78 387.89 324.06 319.69 322.61 316Z" fill="#263238"/>
<path d="M318.538 318C318.008 316.34 317.538 314.56 316.008 313.56C314.478 312.56 292.398 309.56 289.918 309.21C289.798 309.21 289.758 309.37 289.918 309.39C292.038 309.75 312.428 313.39 314.248 314.01C315.027 314.228 315.723 314.674 316.248 315.29C316.789 316.141 317.181 317.078 317.408 318.06C318.038 320.06 318.658 322.01 319.288 323.98C320.548 327.98 321.798 331.91 322.998 335.89C324.348 340.41 325.898 345.14 327.068 349.7C327.158 350.05 327.658 349.88 327.598 349.54C325.998 341 319.188 320 318.538 318Z" fill="#263238"/>
<path d="M270.998 255.84C281.197 257.059 291.278 259.12 301.138 262C311.065 264.789 320.774 268.302 330.188 272.51C335.468 274.88 340.578 277.51 345.648 280.32C345.748 280.37 345.648 280.52 345.558 280.47C336.42 275.749 326.983 271.63 317.308 268.14C307.7 264.64 297.868 261.791 287.878 259.61C282.258 258.39 276.588 257.44 270.878 256.5C270.538 256.44 270.648 255.8 270.998 255.84Z" fill="#263238"/>
<path d="M265.168 178.68C269.518 199.68 278.658 226.31 286.048 231.81C291.998 236.24 323.578 244.5 325.338 244.73C329.708 245.26 339.158 213.95 334.518 213.15C328.388 212.09 301.648 210.01 300.128 208.39C298.608 206.77 288.948 193.08 278.128 177.31C270.578 166.41 262.478 165.65 265.168 178.68Z" fill="#EB9481"/>
<path d="M321.859 243C325.856 245.154 329.999 247.022 334.259 248.59C337.659 249.65 347.519 252.46 349.059 248.83C350.119 246.36 344.509 244.03 340.589 242.3C338.519 241.38 335.989 239.14 336.639 237.81C337.759 235.49 343.089 237.96 346.579 240.09C353.319 244.21 362.269 251.55 366.519 248.17C368.129 246.9 366.349 244.47 363.719 242.07C368.009 244.89 372.599 247.23 374.439 245.88C375.489 245.11 375.559 244.03 375.009 242.78C375.551 243.055 376.163 243.159 376.764 243.079C377.366 242.998 377.929 242.737 378.379 242.33C379.829 240.88 379.179 238.68 377.679 236.41C377.947 236.388 378.206 236.302 378.434 236.16C378.662 236.017 378.853 235.822 378.989 235.59C382.079 231.09 367.379 217.67 362.219 216.33C347.049 212.38 330.799 213.33 330.799 213.33C324.709 218 321.849 242.94 321.859 243Z" fill="#EB9481"/>
<path d="M344.58 229.4C348.198 230.048 351.637 231.456 354.67 233.53C358.48 236.16 360.98 239.21 364.16 242.28C364.24 242.36 364.16 242.5 364.03 242.41C362.52 240.95 356.23 235.41 354.6 234.18C351.667 231.871 348.248 230.257 344.6 229.46C344.6 229.46 344.54 229.39 344.58 229.4Z" fill="#263238"/>
<path d="M347.559 223C351.613 224.048 355.55 225.506 359.309 227.35C363.309 229.51 366.439 232.96 369.509 236.28C371.339 238.28 373.139 240.28 374.889 242.39C374.959 242.48 374.839 242.61 374.759 242.52C371.659 239.093 368.453 235.76 365.139 232.52C362.088 229.509 358.472 227.13 354.499 225.52C352.219 224.6 349.879 223.85 347.549 223.11C347.499 223.05 347.519 223 347.559 223Z" fill="#263238"/>
<path d="M352 217.42C355.88 218.31 359.26 219.06 362.66 221.22C367.17 224.08 371.47 228.83 372.99 230.51C374.65 232.37 376.26 234.29 377.83 236.22C377.9 236.3 377.76 236.42 377.7 236.34C374.086 232.093 370.201 228.085 366.07 224.34C364.128 222.526 361.919 221.022 359.52 219.88C357.085 218.867 354.57 218.061 352 217.47V217.42Z" fill="#263238"/>
<path d="M332.698 212L320.568 245.5C320.568 245.5 287.308 235.69 282.908 229.91C278.508 224.13 267.438 195.14 265.048 179.61C262.658 164.08 270.428 167.29 277.048 175.15C283.668 183.01 300.198 207.34 300.758 207.71C301.318 208.08 332.698 212 332.698 212Z" fill="#653333"/>
<path d="M315.509 237.58C315.959 236.46 316.439 235.36 316.859 234.23L319.479 227.23C320.339 224.88 321.199 222.52 322.039 220.16C322.879 217.8 323.629 215.39 324.509 213.04C324.509 212.93 324.389 212.86 324.349 212.97C323.349 215.28 322.289 217.54 321.349 219.86C320.409 222.18 319.449 224.6 318.559 226.99C317.669 229.38 316.859 231.71 316.059 234.08C315.659 235.28 315.339 236.5 314.969 237.7C314.599 238.9 314.219 240.02 313.969 241.21C313.969 241.29 314.069 241.32 314.099 241.21C314.619 240 314.999 238.79 315.509 237.58Z" fill="#263238"/>
<path opacity="0.1" d="M306.069 240.83C296.519 237.5 285.339 233.09 282.909 229.9C278.509 224.13 267.429 195.14 265.049 179.61C263.919 172.24 265.049 169.08 267.309 168.61L306.069 240.83Z" fill="black"/>
<path d="M283.179 244.12C281.609 245.64 214.349 252.65 214.009 252.2C213.119 250.97 225.689 187.86 252.629 166.11C257.369 162.28 265.289 163.88 268.869 166.19C270.659 167.34 275.619 176.4 277.049 184.46C278.479 192.52 284.169 243.15 283.179 244.12Z" fill="#653333"/>
<path d="M253.759 183.64C251.159 194.4 237.759 232.64 234.479 235.96C230.479 239.91 213.259 252.06 207.239 235.88C203.069 224.67 231.409 185.39 244.789 172.72C251.339 166.53 258.119 165.63 253.759 183.64Z" fill="#653333"/>
<path d="M253.29 191.43C252.63 192.43 251.94 193.52 251.29 194.6C251.16 194.82 251.05 195.04 250.93 195.26C251.14 194.55 251.36 193.83 251.55 193.12C252.06 191.28 252.47 189.42 252.92 187.57C252.925 187.536 252.918 187.5 252.899 187.471C252.88 187.442 252.85 187.42 252.817 187.412C252.783 187.403 252.747 187.407 252.716 187.424C252.685 187.44 252.661 187.467 252.65 187.5C252.13 189.09 251.55 190.66 251.02 192.25C250.49 193.84 250.02 195.25 249.56 196.79C248.533 199.917 247.476 203.04 246.39 206.16C244.26 212.36 241.95 218.49 239.52 224.58C238.17 227.95 236.79 231.31 235.52 234.71C235.52 234.8 235.63 234.86 235.68 234.77C238.645 228.927 241.269 222.917 243.54 216.77C245.9 210.7 248.08 204.56 250 198.34L250.47 196.79L250.68 196.46C251 195.92 251.32 195.37 251.62 194.82C252.23 193.72 252.76 192.57 253.32 191.43H253.29Z" fill="#263238"/>
<path d="M266.48 193C266.48 193 256.17 184.85 253.83 182.61C251.49 180.37 250.2 168 252.76 165.77C255.32 163.54 265.29 164.26 268.42 166.7C271.55 169.14 273.94 176.9 274.18 178.47C274.42 180.04 270.57 192.2 270.57 192.2L268.42 189.29C268.42 189.29 270.66 179.66 270.57 178.1C270.48 176.54 268.85 168.73 268.07 167.56C267.29 166.39 255.77 166.56 254.89 167.04C254.01 167.52 255.52 177.44 256.03 179.11C256.54 180.78 266.88 190.48 266.88 190.48L266.48 193Z" fill="#455A64"/>
<path d="M264.998 188.65L266.908 190.47L266.508 192.99L263.508 190.61L264.998 188.65Z" fill="#263238"/>
<path d="M271.488 189.2C270.958 190.95 270.568 192.2 270.568 192.2L268.418 189.29C268.418 189.29 268.608 188.48 268.868 187.29L271.488 189.2Z" fill="#263238"/>
<path d="M265.039 191.84L268.419 189.28L271.209 190.14L270.289 195.33L266.559 195.62L265.039 191.84Z" fill="#455A64"/>
<path d="M266.56 195.62L262.43 236.54L272.87 248.37L276.08 233.94L270.29 195.33L266.56 195.62Z" fill="#455A64"/>
<path d="M266.561 195.62L270.291 195.33L270.411 196.08L266.391 197.24L266.561 195.62Z" fill="#263238"/>
<path d="M266.76 176.85C262.98 178.08 255.88 172.75 252.88 168.21C252.67 167.89 252.95 154.72 252.73 152.1C252.73 151.57 269.49 154.73 269.49 154.73C268.824 158.076 268.573 161.492 268.74 164.9C268.78 165.28 270.4 175.66 266.76 176.85Z" fill="#EB9481"/>
<path d="M269.499 154.72C269.499 154.8 269.419 155.13 269.329 155.65C269.169 156.55 268.949 158.01 268.809 159.65C268.634 161.385 268.614 163.132 268.749 164.87C268.743 164.99 268.743 165.11 268.749 165.23V165.29C268.749 165.5 268.809 165.79 268.849 166.12C268.327 166.243 267.795 166.32 267.259 166.35C258.259 166.89 254.379 156.16 253.199 152.02H253.489C253.929 152.02 254.489 152.12 255.209 152.22L255.739 152.29L259.579 152.9L260.959 153.13L263.889 153.64C264.289 153.73 264.689 153.8 265.059 153.86L266.249 154.07L266.799 154.17L267.059 154.22C267.609 154.32 268.059 154.4 268.449 154.48L269.119 154.6L269.399 154.66H269.459L269.499 154.72Z" fill="#263238"/>
<path d="M250.701 132.18C248.881 138.01 251.871 154.89 256.001 158.68C262.001 164.16 271.861 164.74 276.541 157.54C281.081 150.54 276.801 128.62 272.181 125.17C265.371 120.1 253.391 123.58 250.701 132.18Z" fill="#EB9481"/>
<path d="M265.919 141.33C263.809 141.4 264.089 145.6 266.039 145.55C267.989 145.5 267.679 141.28 265.919 141.33Z" fill="#D3766A"/>
<path d="M274.74 140.06C272.74 140.67 274.11 144.59 275.95 144.06C277.79 143.53 276.4 139.56 274.74 140.06Z" fill="#D3766A"/>
<path d="M267.14 142.16C267.14 142.16 267.06 142.23 267.07 142.28C267.34 143.4 267.45 144.74 266.5 145.28C266.5 145.28 266.5 145.35 266.5 145.34C267.74 145 267.57 143.18 267.14 142.16Z" fill="#263238"/>
<path d="M265.887 141.18C264.037 141.41 264.627 145.09 266.347 144.88C268.067 144.67 267.437 141 265.887 141.18Z" fill="#263238"/>
<path d="M273.768 141.28C273.768 141.28 273.868 141.28 273.878 141.37C274.028 142.52 274.388 143.8 275.478 144.02V144.08C274.188 144.11 273.728 142.39 273.768 141.28Z" fill="#263238"/>
<path d="M274.598 139.93C276.408 139.49 277.148 143.15 275.468 143.55C273.788 143.95 273.078 140.29 274.598 139.93Z" fill="#263238"/>
<path d="M263.481 137.69C263.841 137.31 264.231 137.02 264.621 136.69C264.979 136.281 265.459 135.997 265.991 135.88C266.164 135.878 266.333 135.932 266.472 136.035C266.611 136.138 266.712 136.284 266.761 136.45C266.808 136.795 266.762 137.146 266.626 137.466C266.491 137.786 266.271 138.064 265.991 138.27C265.49 138.78 264.815 139.084 264.101 139.12C263.933 139.124 263.768 139.079 263.627 138.989C263.485 138.898 263.374 138.768 263.308 138.614C263.241 138.461 263.222 138.29 263.253 138.126C263.283 137.961 263.363 137.809 263.481 137.69Z" fill="#263238"/>
<path d="M276.619 137.52C276.171 137.276 275.711 137.056 275.239 136.86C274.786 136.555 274.244 136.411 273.699 136.45C273.53 136.493 273.38 136.591 273.273 136.728C273.166 136.866 273.109 137.036 273.109 137.21C273.166 137.553 273.311 137.876 273.53 138.146C273.749 138.416 274.035 138.624 274.359 138.75C274.969 139.084 275.678 139.191 276.359 139.05C276.518 139.009 276.662 138.923 276.773 138.802C276.884 138.682 276.958 138.531 276.985 138.37C277.013 138.208 276.993 138.041 276.928 137.891C276.863 137.74 276.756 137.611 276.619 137.52Z" fill="#263238"/>
<path d="M268.787 151.4C270.168 150.723 271.689 150.381 273.227 150.4C273.347 150.4 273.427 150.09 273.427 149.96L272.967 147.57C273.307 147.67 275.037 148.14 274.967 147.69C274.235 143.8 273.109 139.993 271.607 136.33C271.593 136.311 271.574 136.296 271.551 136.289C271.528 136.281 271.503 136.281 271.481 136.289C271.458 136.297 271.438 136.312 271.425 136.332C271.412 136.352 271.406 136.376 271.407 136.4C272.067 139.99 273.347 143.45 274.067 147.06C273.45 146.882 272.81 146.795 272.167 146.8C272.047 146.85 272.787 149.31 272.807 149.7C271.341 149.55 269.874 149.977 268.717 150.89C268.247 151.29 268.137 151.78 268.787 151.4Z" fill="#263238"/>
<path d="M271.729 152.39C272.359 152.11 272.919 149.74 271.729 149.74C270.539 149.74 268.039 150.68 267.379 152.23C266.799 153.59 269.959 152.23 270.539 152.37C271.119 152.51 271.269 152.59 271.729 152.39Z" fill="#263238"/>
<path d="M270.57 152.37L270.85 152.43C270.73 151.7 269.9 150.92 268.32 151.08C267.923 151.381 267.607 151.776 267.4 152.23C266.83 153.58 270 152.25 270.57 152.37Z" fill="#FF9ABB"/>
<path d="M266.759 153.45C267.069 153.67 267.399 153.99 267.819 153.96C268.234 153.875 268.628 153.709 268.979 153.47C268.979 153.47 269.059 153.47 269.039 153.52C268.914 153.768 268.724 153.978 268.49 154.127C268.256 154.277 267.986 154.361 267.709 154.37C267.469 154.35 267.24 154.259 267.053 154.107C266.866 153.955 266.728 153.751 266.659 153.52C266.629 153.46 266.709 153.42 266.759 153.45Z" fill="#263238"/>
<path d="M251.42 147.11C251.42 147.11 245.74 137.26 246.42 131.66C246.73 129.12 250.23 127.49 250.23 127.49C249.987 126.448 250.04 125.358 250.382 124.344C250.725 123.33 251.344 122.432 252.17 121.75C255.23 118.99 262.49 119.75 262.49 119.75C262.49 119.75 267.36 113.04 273.97 115.89C280.58 118.74 276.07 126.21 276.07 126.21C276.07 126.21 278.44 129.73 272.4 132.32C266.52 134.84 254.68 131.97 254.68 131.97C255.139 136.08 254.984 140.236 254.22 144.3C254.062 144.984 253.717 145.609 253.222 146.106C252.727 146.602 252.103 146.95 251.42 147.11Z" fill="#263238"/>
<path d="M263.63 119.9C262.159 119.249 260.569 118.909 258.96 118.9C257.524 118.844 256.09 119.036 254.72 119.47C252.3 120.27 250.12 122 249.66 124.62C249.547 125.266 249.564 125.927 249.71 126.566C249.856 127.205 250.128 127.808 250.51 128.34C250.51 128.34 250.61 128.34 250.58 128.28C249.08 126.34 249.95 123.38 251.58 121.82C253.42 120.05 256.2 119.42 258.68 119.37C260.336 119.385 261.984 119.597 263.59 120C263.6 119.997 263.609 119.992 263.616 119.985C263.624 119.978 263.63 119.969 263.633 119.96C263.637 119.95 263.639 119.94 263.638 119.93C263.638 119.919 263.635 119.909 263.63 119.9Z" fill="#263238"/>
<path d="M273.828 132.7C271.144 133.719 268.273 134.152 265.408 133.97C262.432 133.822 259.481 133.349 256.608 132.56C254.928 132.12 253.268 131.56 251.608 131.08C251.558 131.08 251.528 131.14 251.608 131.16C254.494 132.474 257.511 133.479 260.608 134.16C263.48 134.761 266.442 134.799 269.328 134.27C270.908 133.958 272.443 133.451 273.898 132.76C273.898 132.76 273.868 132.68 273.828 132.7Z" fill="#263238"/>
<path d="M254.391 145.93C254.391 145.93 250.491 140.53 248.041 141.93C245.591 143.33 248.561 151.19 251.481 152.23C251.847 152.383 252.241 152.462 252.638 152.462C253.036 152.462 253.429 152.382 253.796 152.229C254.162 152.075 254.495 151.851 254.774 151.568C255.053 151.284 255.273 150.949 255.421 150.58L254.391 145.93Z" fill="#EB9481"/>
<path d="M249 144.16V144.24C251 145.04 252.15 146.91 252.93 148.86C252.809 148.657 252.645 148.483 252.45 148.35C252.255 148.217 252.033 148.128 251.8 148.089C251.567 148.05 251.328 148.062 251.1 148.124C250.872 148.187 250.661 148.298 250.48 148.45C250.48 148.45 250.48 148.57 250.54 148.55C250.896 148.434 251.278 148.43 251.636 148.539C251.994 148.648 252.31 148.865 252.54 149.16C252.932 149.655 253.267 150.191 253.54 150.76C253.64 150.94 253.97 150.84 253.89 150.63C253.81 148 251.74 144.38 249 144.16Z" fill="#263238"/>
<path d="M268.998 166.27L265.998 176.41L252.648 165.28L249.648 169.58C249.648 169.58 263.458 188 263.448 187.11L266.628 178.3L273.008 183.57L271.078 168.94L268.998 166.27Z" fill="#653333"/>
<path d="M272.439 176.29C272.039 173.88 271.709 171.45 271.199 169.06C271.199 168.98 271.039 168.95 271.029 169.06C270.779 171.44 272.359 180.63 272.569 182.85C272.299 182.62 266.679 178.24 266.639 178.32C265.899 179.74 263.559 186.16 263.409 186.74C261.229 183.81 252.909 173.21 250.409 170.48C250.395 170.463 250.376 170.451 250.354 170.449C250.333 170.446 250.311 170.452 250.294 170.465C250.276 170.478 250.265 170.498 250.262 170.519C250.26 170.541 250.265 170.563 250.279 170.58C252.279 173.71 263.279 188 263.429 187.94C264.692 184.899 265.797 181.795 266.739 178.64C267.739 179.64 273.449 184.64 273.429 184.26C273.24 181.588 272.91 178.927 272.439 176.29Z" fill="#263238"/>
<path d="M272.927 203C272.927 203 268.747 197.49 272.737 195C276.727 192.51 279.997 198.5 279.997 198.5L272.927 203Z" fill="#455A64"/>
<path d="M306 239.23L306.58 245.97L306.78 248.19L304.84 247.08L298.97 243.71L272.84 202.71L279.84 198.22L305.97 239.22L306 239.23Z" fill="#455A64"/>
<path d="M306.527 245.98L306.727 248.2L304.777 247.09L306.527 245.98Z" fill="#263238"/>
<path d="M280.254 197.693L272.051 202.925L273.089 204.553L281.292 199.32L280.254 197.693Z" fill="#263238"/>
<path d="M281.413 199.452L273.211 204.686L274.249 206.313L282.452 201.079L281.413 199.452Z" fill="#263238"/>
<path d="M274.238 206.34L276.888 204.65L284.878 220.4L283.868 220.96L274.238 206.34Z" fill="#263238"/>
<path d="M258.749 213.2C262.829 212.97 270.169 248.61 264.189 249.25C237.539 252.1 216.999 245.13 212.339 242.04C206.229 238.04 206.849 229.51 210.129 226.04C215.799 219.94 252.409 213.57 258.749 213.2Z" fill="#EB9481"/>
<path d="M308.471 218.25C307.861 222.16 298.341 219.85 298.341 219.85C299.603 221.001 300.421 222.558 300.651 224.25C300.911 227.25 296.331 228.97 296.331 228.97C297.381 230.431 297.97 232.172 298.021 233.97C298.021 236.87 293.611 239.27 293.611 239.27C293.835 241.155 293.374 243.058 292.311 244.63C289.311 248.72 262.041 249.28 258.631 249.43L257.051 213.75C257.051 213.75 279.651 204.8 285.381 206C290.201 207 309.391 212.27 308.471 218.25Z" fill="#EB9481"/>
<path d="M298.278 219.72C293.408 217.42 287.998 216.28 282.758 215.25C282.648 215.25 282.608 215.41 282.758 215.43C287.978 216.43 293.058 218.79 298.228 219.96C298.338 220 298.408 219.78 298.278 219.72Z" fill="#263238"/>
<path d="M296.248 228.56C295.091 228.14 293.884 227.875 292.658 227.77C291.378 227.58 290.088 227.42 288.788 227.27C286.195 226.977 283.601 226.75 281.008 226.59C280.888 226.59 280.848 226.76 281.008 226.77C283.588 227.07 286.168 227.4 288.728 227.77C290.018 227.97 291.298 228.18 292.578 228.4C293.773 228.691 294.998 228.849 296.228 228.87C296.256 228.856 296.28 228.835 296.297 228.809C296.315 228.783 296.325 228.752 296.327 228.721C296.329 228.69 296.323 228.658 296.309 228.63C296.295 228.602 296.274 228.578 296.248 228.56Z" fill="#263238"/>
<path d="M293.5 239.29C292.453 238.923 291.349 238.743 290.24 238.76L286.69 238.41C284.33 238.17 281.97 237.92 279.61 237.59C279.5 237.59 279.46 237.76 279.61 237.78C282 238.12 284.38 238.5 286.77 238.78C287.95 238.94 289.12 239.09 290.3 239.23C291.359 239.472 292.453 239.519 293.53 239.37C293.534 239.356 293.534 239.34 293.528 239.325C293.523 239.311 293.513 239.298 293.5 239.29Z" fill="#263238"/>
<path d="M254.767 213.11L260.997 253C260.997 253 218.697 249.22 210.587 241.42C204.957 235.99 206.667 227.49 209.907 224.93C216.997 219.33 254.767 213.11 254.767 213.11Z" fill="#653333"/>
<path d="M250.131 250C249.051 244.42 245.481 221.44 245.051 216.43C245.051 216.08 245.231 215.97 245.311 216.33C248.931 232.96 249.571 244.42 250.311 249.95C250.361 250.06 250.151 250.12 250.131 250Z" fill="#263238"/>
<path d="M254.828 212.71C245.039 214.178 235.338 216.181 225.768 218.71L224.998 219C223.208 219.17 221.428 219.53 219.658 219.86C219.658 219.86 219.658 219.95 219.658 219.94C221.068 219.68 222.498 219.51 223.918 219.34C223.108 219.6 222.298 219.87 221.488 220.16C220.068 220.66 218.658 221.22 217.238 221.74C217.238 221.74 217.238 221.83 217.238 221.81C219.618 220.97 222.068 220.27 224.488 219.55C226.908 218.83 254.568 213.17 254.678 213.18C254.788 213.19 254.768 213.43 254.778 213.52C254.788 213.61 254.928 213.65 254.918 213.52C254.92 213.247 254.889 212.976 254.828 212.71Z" fill="#263238"/>
<path d="M255.13 252.35C253.93 252.1 249.4 251.69 248.19 251.53C245.77 251.19 243.34 250.87 240.92 250.47C236.06 249.67 231.25 248.64 226.46 247.47C225.13 247.16 223.81 246.83 222.46 246.47C221.11 246.11 216.61 244.61 215.26 244.17C215.21 244.17 215.18 244.23 215.26 244.25C217.405 245.175 219.602 245.973 221.84 246.64C223.03 246.97 224.2 247.36 225.38 247.7C227.76 248.38 230.17 248.97 232.59 249.51C237.41 250.58 242.31 251.39 247.21 251.99C248.59 252.15 253.77 252.65 255.15 252.57C255.3 252.61 255.27 252.38 255.13 252.35Z" fill="#263238"/>
<path d="M140.709 247C140.709 247 159.119 244.42 154.819 222.19C154.819 222.2 134.249 226.82 140.709 247Z" fill="#653333"/>
<path opacity="0.1" d="M140.709 247C140.709 247 159.119 244.42 154.819 222.19C154.819 222.2 134.249 226.82 140.709 247Z" fill="black"/>
<path d="M141.639 242.37C141.999 241.24 142.429 240.14 142.899 239.05C142.899 238.91 142.899 238.77 142.899 238.63C142.899 238.33 142.959 238.02 142.979 237.71C142.979 237.05 143.069 236.39 143.109 235.71C143.189 234.39 143.279 233.06 143.299 231.71C143.295 231.701 143.293 231.691 143.294 231.681C143.295 231.671 143.298 231.662 143.303 231.653C143.309 231.645 143.316 231.638 143.325 231.633C143.334 231.629 143.344 231.626 143.354 231.626C143.364 231.626 143.373 231.629 143.382 231.633C143.391 231.638 143.398 231.645 143.404 231.653C143.409 231.662 143.413 231.671 143.413 231.681C143.414 231.691 143.413 231.701 143.409 231.71C143.409 233.04 143.409 234.37 143.409 235.71C143.409 236.37 143.339 237.04 143.299 237.71V238.15C144.334 235.94 145.573 233.831 146.999 231.85C147.625 230.97 148.292 230.12 148.999 229.3C149.739 228.46 150.509 227.66 151.259 226.83C151.259 226.77 151.379 226.83 151.329 226.91C150.008 228.376 148.821 229.955 147.779 231.63C147.229 232.47 146.699 233.34 146.189 234.23L146.369 234.16L147.019 233.89L148.519 233.32C149.519 232.96 150.519 232.6 151.519 232.22C151.579 232.22 151.619 232.3 151.519 232.33C150.519 232.72 149.519 233.13 148.599 233.55L147.179 234.16L146.459 234.46C146.301 234.532 146.137 234.588 145.969 234.63C145.599 235.3 145.229 235.96 144.889 236.63C144.034 238.351 143.283 240.12 142.639 241.93C142.639 242.06 142.549 242.19 142.509 242.31C142.993 242.032 143.498 241.791 144.019 241.59C144.649 241.29 145.289 241.01 145.919 240.72C147.209 240.12 148.499 239.52 149.729 238.82C149.799 238.82 149.849 238.89 149.789 238.92C148.519 239.61 147.279 240.35 146.019 241.04C145.379 241.38 144.749 241.71 144.099 242.04C143.562 242.361 142.978 242.594 142.369 242.73C141.748 244.43 141.341 246.2 141.159 248C140.959 250.52 140.979 253 140.919 255.57C140.919 255.57 140.859 255.57 140.849 255.57C140.669 253.283 140.572 250.987 140.559 248.68C140.577 246.532 140.942 244.402 141.639 242.37Z" fill="#263238"/>
<path d="M144.482 229.29C144.656 230.589 144.717 231.9 144.662 233.21C144.662 233.21 144.662 233.21 144.602 233.21C144.532 231.91 144.522 230.62 144.372 229.32C144.362 229.25 144.472 229.22 144.482 229.29Z" fill="#263238"/>
<path d="M149.74 230.41C150.566 230.097 151.359 229.705 152.11 229.24C152.17 229.24 152.23 229.3 152.11 229.34C151.377 229.841 150.571 230.226 149.72 230.48C149.72 230.48 149.7 230.43 149.74 230.41Z" fill="#263238"/>
<path d="M140.12 282.29C140.12 280.29 140.18 278.22 140.2 276.19C140.2 269.43 140.29 262.68 140.42 255.92C140.514 250.553 140.637 245.19 140.79 239.83C140.785 239.819 140.782 239.807 140.782 239.795C140.782 239.783 140.785 239.771 140.79 239.76C140.79 238.29 140.79 236.83 140.79 235.36C140.79 235.36 140.79 235.31 140.88 235.31C140.97 235.31 140.97 235.31 140.97 235.37C140.97 236.83 140.97 238.3 140.97 239.77C140.977 239.79 140.977 239.811 140.97 239.83C141.24 249.38 141.48 258.93 141.53 268.48C141.53 270.42 141.53 272.36 141.53 274.3C141.604 280.527 141.627 286.753 141.6 292.98V295.98C141.6 301.68 141.54 307.37 141.54 313.07C141.54 313.38 141.2 313.53 140.83 313.54C140.46 313.55 139.98 313.39 139.98 313.04C139.98 306.76 139.98 300.48 139.98 294.2C140.11 290.21 140.09 286.25 140.12 282.29Z" fill="#263238"/>
<path d="M147.809 276.11C147.809 276.11 156.669 269.55 165.069 273.98C173.469 278.41 174.799 295.51 174.799 295.51C174.799 295.51 162.459 297.27 154.679 289.88C147.189 282.75 147.809 276.11 147.809 276.11Z" fill="#653333"/>
<path d="M145.402 276.52C147.03 275.873 148.793 275.643 150.532 275.85C150.889 275.788 151.25 275.752 151.612 275.74L152.862 275.65L155.452 275.46C157.192 275.33 158.942 275.23 160.692 275.05C160.703 275.054 160.712 275.062 160.718 275.072C160.725 275.082 160.728 275.093 160.728 275.105C160.728 275.117 160.725 275.128 160.718 275.138C160.712 275.147 160.703 275.155 160.692 275.16C158.962 275.38 157.252 275.63 155.522 275.8C154.632 275.89 153.742 275.99 152.842 276.05L152.192 276.11C152.462 276.17 152.722 276.23 152.982 276.31C154.37 276.709 155.711 277.255 156.982 277.94C157.682 278.06 158.372 278.26 159.062 278.42C160.162 278.68 161.252 278.96 162.342 279.25C164.492 279.81 166.612 280.44 168.752 281.06C168.763 281.064 168.772 281.072 168.778 281.082C168.785 281.092 168.788 281.103 168.788 281.115C168.788 281.126 168.785 281.138 168.778 281.148C168.772 281.157 168.763 281.165 168.752 281.17C166.612 280.65 164.472 280.17 162.332 279.66C161.332 279.41 160.252 279.17 159.222 278.91L158.402 278.73C160.785 280.199 162.913 282.047 164.702 284.2C166.429 286.317 167.896 288.634 169.072 291.1C169.072 291.16 169.072 291.22 168.982 291.16C167.533 288.602 165.751 286.248 163.682 284.16L163.802 284.51C163.972 285.04 164.132 285.56 164.292 286.08C164.622 287.08 164.952 288.16 165.292 289.21C165.292 289.28 165.212 289.3 165.182 289.21C164.812 288.21 164.462 287.21 164.102 286.16C163.932 285.67 163.752 285.16 163.572 284.67L163.312 283.89L163.222 283.65C162.208 282.715 161.133 281.85 160.002 281.06C158.544 279.982 156.967 279.076 155.302 278.36L155.392 278.82C155.482 279.22 155.572 279.62 155.652 280.03C155.832 280.86 155.992 281.71 156.152 282.55C156.492 284.26 156.692 286 157.012 287.71C157.007 287.721 157 287.73 156.99 287.736C156.98 287.742 156.969 287.746 156.957 287.746C156.945 287.746 156.934 287.742 156.924 287.736C156.914 287.73 156.907 287.721 156.902 287.71C156.512 285.98 156.002 284.29 155.612 282.56C155.422 281.7 155.222 280.83 155.042 279.97L154.802 278.75C154.802 278.53 154.702 278.3 154.672 278.07C154.512 278.01 154.362 277.93 154.192 277.87C151.872 276.874 149.324 276.529 146.822 276.87C145.651 277.088 144.552 277.592 143.622 278.337C142.692 279.082 141.961 280.045 141.492 281.14C141.412 281.33 141.112 281.21 141.152 281.01C141.457 279.98 142.002 279.037 142.74 278.256C143.478 277.476 144.39 276.881 145.402 276.52Z" fill="#263238"/>
<path d="M159.001 283.81C159.251 284.94 159.501 286.06 159.741 287.18C160.022 288.258 160.229 289.354 160.361 290.46C160.361 290.46 160.301 290.46 160.291 290.46C159.965 289.382 159.715 288.283 159.541 287.17C159.321 286.06 159.101 284.95 158.891 283.84C158.891 283.828 158.896 283.815 158.904 283.806C158.912 283.796 158.923 283.789 158.935 283.785C158.947 283.782 158.96 283.783 158.972 283.787C158.984 283.792 158.994 283.8 159.001 283.81Z" fill="#263238"/>
<path d="M167.519 286.67C168.649 287.24 169.739 287.89 170.919 288.36C170.928 288.354 170.938 288.351 170.949 288.35C170.96 288.35 170.971 288.352 170.98 288.357C170.99 288.362 170.998 288.37 171.003 288.379C171.009 288.389 171.012 288.399 171.012 288.41C171.012 288.421 171.009 288.431 171.003 288.441C170.998 288.45 170.99 288.458 170.98 288.463C170.971 288.468 170.96 288.47 170.949 288.47C170.938 288.469 170.928 288.466 170.919 288.46C169.789 287.89 168.619 287.39 167.549 286.71C167.469 286.69 167.489 286.65 167.519 286.67Z" fill="#263238"/>
<path d="M145.82 264.06C145.82 264.06 156.65 264.75 161.68 257.61C166.71 250.47 165.59 240.28 165.59 240.28C165.59 240.28 154.22 241.67 149.7 246.79C145.18 251.91 145.82 264.06 145.82 264.06Z" fill="#653333"/>
<path d="M140.74 274.74C141.12 273.58 141.58 272.44 142.02 271.3C142.46 270.16 142.89 269.13 143.36 268.06C144.333 265.879 145.417 263.749 146.61 261.68C147.37 260.37 148.19 259.09 149.03 257.83C149.03 257.64 149.09 257.45 149.12 257.25L149.27 256.25C149.38 255.56 149.5 254.88 149.61 254.2C149.86 252.7 150.17 251.2 150.41 249.72C150.41 249.65 150.53 249.65 150.52 249.72C150.3 251.2 150.15 252.72 149.95 254.17C149.84 254.89 149.75 255.62 149.64 256.34L149.52 257.13C151.171 254.715 152.957 252.394 154.87 250.18C155.13 249.88 155.4 249.59 155.66 249.3C155.66 249.22 155.73 249.14 155.76 249.05L156 248.43L156.46 247.14C156.77 246.29 157.04 245.44 157.27 244.57C157.274 244.559 157.282 244.55 157.292 244.544C157.302 244.537 157.313 244.534 157.325 244.534C157.336 244.534 157.348 244.537 157.358 244.544C157.367 244.55 157.375 244.559 157.38 244.57C157.16 245.46 156.93 246.35 156.67 247.22C156.54 247.65 156.4 248.06 156.26 248.48C156.229 248.548 156.202 248.618 156.18 248.69C157.56 247.18 159 245.69 160.46 244.29C160.51 244.29 160.59 244.29 160.54 244.37C157.742 247.299 155.177 250.442 152.87 253.77C153.132 253.686 153.4 253.616 153.67 253.56C154.5 253.4 155.35 253.28 156.19 253.18C157.95 252.95 159.71 252.73 161.47 252.45C161.54 252.45 161.56 252.55 161.47 252.56C159.8 252.89 158.13 253.27 156.47 253.65C155.68 253.83 154.89 253.99 154.1 254.14C153.455 254.282 152.821 254.466 152.2 254.69C152.03 254.94 151.85 255.18 151.67 255.43C150.88 256.59 150.12 257.77 149.37 258.96L150.47 258.74L152.99 258.29C154.64 258.02 156.29 257.73 157.92 257.36C157.99 257.36 158.02 257.45 157.92 257.47C156.27 257.86 154.63 258.31 152.98 258.75C152.19 258.96 151.39 259.15 150.59 259.33L149.39 259.59C149.23 259.634 149.065 259.661 148.9 259.67C147.32 262.24 145.83 264.86 144.46 267.54C143.86 268.72 143.28 269.91 142.71 271.11C142.14 272.31 141.64 273.59 141.11 274.84C141.05 275.12 140.65 275 140.74 274.74Z" fill="#263238"/>
<path d="M151.819 249.86C152.029 248.86 152.239 247.8 152.469 246.77C152.469 246.7 152.599 246.77 152.579 246.77C152.379 247.77 152.179 248.77 151.999 249.82C151.819 250.87 151.669 251.82 151.379 252.82C151.454 251.824 151.601 250.835 151.819 249.86Z" fill="#263238"/>
<path d="M158.129 249.56C158.639 249.31 159.129 249.11 159.689 248.91L160.509 248.59L160.929 248.42C161.091 248.374 161.246 248.307 161.389 248.22C161.469 248.16 161.519 248.3 161.389 248.31C161.23 248.357 161.075 248.42 160.929 248.5L160.519 248.69L159.729 249.04C159.207 249.277 158.673 249.488 158.129 249.67C158.109 249.69 158.069 249.59 158.129 249.56Z" fill="#263238"/>
<path d="M134.74 255.55C134.74 255.55 128.19 243.31 118.23 241.42C108.27 239.53 102.16 249.78 102.16 249.78C102.16 249.78 109.43 259.06 118.57 260.68C127.71 262.3 134.74 255.55 134.74 255.55Z" fill="#653333"/>
<path d="M111.55 246.9C114.144 246.553 116.775 246.587 119.36 247L118.92 246.76L116.71 245.62C115.18 244.82 113.63 243.98 112.03 243.33C112.016 243.33 112.004 243.325 111.994 243.315C111.985 243.306 111.98 243.293 111.98 243.28C111.98 243.267 111.985 243.254 111.994 243.245C112.004 243.235 112.016 243.23 112.03 243.23C113.59 243.96 115.21 244.57 116.77 245.29C117.55 245.65 118.32 246.02 119.08 246.42C119.58 246.68 120.08 246.93 120.6 247.24C122.811 247.679 124.96 248.388 127 249.35L125.73 248C124.8 247 123.89 245.91 122.87 245C122.87 245 122.87 244.87 122.95 244.92C123.95 245.87 125.09 246.74 126.11 247.73C126.6 248.21 127.11 248.73 127.52 249.21C127.75 249.47 127.98 249.73 128.2 250C131.616 251.83 134.585 254.393 136.894 257.505C139.204 260.617 140.797 264.2 141.56 268C141.56 268.07 141.47 268.11 141.45 268C140.045 263.337 137.534 259.083 134.13 255.6C131.213 252.623 127.683 250.316 123.786 248.837C119.889 247.359 115.717 246.746 111.56 247.04C111.43 247.11 111.42 246.92 111.55 246.9Z" fill="#263238"/>
<path opacity="0.1" d="M102.16 249.78C102.16 249.78 109.43 259.06 118.58 260.68C125.58 261.92 131.29 258.28 133.58 256.49L134.08 255.66C134.08 255.66 129.37 251.66 120.44 249.39C111.51 247.12 102.16 249.78 102.16 249.78Z" fill="black"/>
<path d="M117.329 242.54C118.094 242.987 118.835 243.474 119.549 244C120.242 244.525 120.885 245.115 121.469 245.76C121.519 245.82 121.469 245.89 121.379 245.84C120.719 245.27 120.059 244.69 119.379 244.15C118.717 243.6 118.018 243.096 117.289 242.64C117.209 242.6 117.269 242.5 117.329 242.54Z" fill="#263238"/>
<path d="M111.869 244.61C112.229 244.77 112.609 244.9 112.979 245.05L114.089 245.51C114.169 245.51 114.089 245.67 114.089 245.64L112.979 245.19L111.869 244.72C111.769 244.69 111.799 244.58 111.869 244.61Z" fill="#263238"/>
<path d="M136.052 271C136.052 271 134.302 283.14 125.172 287.38C116.042 291.62 104.922 287.38 104.922 287.38C104.922 287.38 109.292 261.07 136.052 271Z" fill="#653333"/>
<path d="M111.211 279.44C112.051 279.34 112.881 279.2 113.721 279.05L114.941 278.81C115.151 278.81 115.371 278.72 115.591 278.69C115.831 278.46 116.071 278.22 116.321 278C118.056 276.496 119.928 275.157 121.911 274C122.988 273.358 124.103 272.783 125.251 272.28H125.081L122.081 272.41C120.081 272.51 118.081 272.55 116.081 272.68C116.011 272.68 116.011 272.57 116.081 272.57C118.081 272.43 120.081 272.21 122.081 272.04L124.991 271.78L126.501 271.65H126.881C127.401 271.45 127.881 271.27 128.461 271.1C130.949 270.248 133.625 270.103 136.191 270.68C138.491 271.27 140.781 272.77 141.371 275.19C141.371 275.28 141.261 275.33 141.231 275.25C140.371 273.25 138.131 272.25 136.101 271.79C134.74 271.524 133.342 271.497 131.971 271.71C131.873 272.334 131.715 272.946 131.501 273.54C131.251 274.4 131.001 275.25 130.741 276.1C130.231 277.81 129.661 279.5 129.151 281.2C129.151 281.27 129.031 281.2 129.041 281.2C129.471 279.5 129.831 277.78 130.241 276.07C130.441 275.23 130.651 274.4 130.861 273.56C130.975 272.977 131.128 272.402 131.321 271.84C130.522 271.981 129.731 272.165 128.951 272.39C127.542 272.813 126.159 273.321 124.811 273.91C124.681 274.78 124.481 275.63 124.291 276.49C124.041 277.56 123.761 278.62 123.421 279.67C123.421 279.73 123.301 279.67 123.321 279.67C123.315 279.604 123.315 279.537 123.321 279.47C123.521 278.47 123.741 277.47 123.951 276.47C124.121 275.67 124.281 274.87 124.451 274.07C123.321 274.58 122.201 275.14 121.121 275.76C121.121 276 121.041 276.26 121.001 276.48C120.941 276.9 120.861 277.31 120.791 277.73C120.621 278.66 120.431 279.6 120.201 280.52C119.792 282.311 119.271 284.075 118.641 285.8C118.648 285.81 118.652 285.823 118.652 285.835C118.652 285.848 118.648 285.86 118.641 285.87V285.93C118.641 285.98 118.541 285.93 118.551 285.87C118.971 284.08 119.451 282.29 119.851 280.49C120.051 279.59 120.251 278.68 120.431 277.78C120.521 277.33 120.601 276.87 120.691 276.42L120.751 276.01C119.522 276.735 118.334 277.526 117.191 278.38C115.223 279.87 113.401 281.544 111.751 283.38C111.691 283.45 111.561 283.38 111.621 283.27C112.321 282.36 113.011 281.46 113.801 280.62C114.251 280.13 114.731 279.62 115.221 279.19H115.071L113.781 279.39C112.941 279.5 112.091 279.58 111.241 279.68C111.161 279.56 111.131 279.45 111.211 279.44Z" fill="#263238"/>
<path d="M117.62 283.55C117.62 283.45 117.62 283.34 117.67 283.24C117.72 283.14 117.76 282.98 117.78 282.84C117.96 282.03 118.12 281.21 118.27 280.39C118.27 280.33 118.37 280.39 118.37 280.39C118.314 281.478 118.077 282.549 117.67 283.56C117.67 283.56 117.6 283.56 117.61 283.56L117.62 283.55Z" fill="#263238"/>
<path d="M125.258 283.36C125.258 283.347 125.264 283.334 125.273 283.325C125.282 283.315 125.295 283.31 125.308 283.31C125.568 282.23 125.818 281.16 126.038 280.07C126.148 279.51 126.268 278.94 126.378 278.37C126.438 278.06 126.498 277.75 126.548 277.44C126.575 277.171 126.642 276.908 126.748 276.66C126.748 276.647 126.754 276.634 126.763 276.625C126.772 276.615 126.785 276.61 126.798 276.61C126.812 276.61 126.824 276.615 126.834 276.625C126.843 276.634 126.848 276.647 126.848 276.66C126.861 277.212 126.783 277.763 126.618 278.29C126.508 278.88 126.398 279.48 126.268 280.06C125.998 281.26 125.698 282.45 125.358 283.63C125.358 283.646 125.352 283.661 125.341 283.672C125.329 283.684 125.314 283.69 125.298 283.69C125.282 283.69 125.267 283.684 125.256 283.672C125.245 283.661 125.238 283.646 125.238 283.63L125.258 283.36Z" fill="#263238"/>
<path d="M112 275.94C113.66 275.71 115.33 275.47 117 275.27C117.07 275.27 117.1 275.37 117 275.38C115.33 275.62 113.66 275.83 112 276.05C112 276.06 112 276 112 275.94Z" fill="#263238"/>
<path d="M140.729 242.48C140.729 242.48 146.309 218 119.999 208.06C119.999 208.06 112.689 240.32 140.729 242.48Z" fill="#653333"/>
<path d="M135.002 228.59L134.722 228.41L133.232 227.58L130.232 225.87C128.232 224.75 126.232 223.58 124.232 222.48C124.172 222.48 124.232 222.35 124.292 222.39C126.292 223.49 128.382 224.52 130.422 225.6L133.422 227.19L134.652 227.84C133.772 226.18 132.832 224.54 131.802 222.97C130.432 220.87 128.922 218.87 127.352 216.92C127.335 216.903 127.325 216.879 127.325 216.855C127.325 216.831 127.335 216.807 127.352 216.79C127.369 216.773 127.393 216.763 127.417 216.763C127.441 216.763 127.465 216.773 127.482 216.79C129.789 219.041 131.832 221.547 133.572 224.26C133.567 224.174 133.567 224.087 133.572 224C133.572 223.387 133.552 222.777 133.512 222.17C133.512 220.98 133.512 219.78 133.512 218.58C133.512 218.51 133.622 218.52 133.622 218.58C133.622 219.75 133.812 220.93 133.882 222.1C133.882 222.69 133.942 223.28 133.952 223.87C133.952 224.18 133.952 224.55 133.952 224.87C134.492 225.74 135.012 226.61 135.512 227.5C136.389 229.097 137.174 230.743 137.862 232.43C137.862 231.82 137.922 231.21 137.962 230.6C138.042 229.26 138.202 227.93 138.262 226.6C138.262 226.53 138.372 226.53 138.372 226.6C138.372 227.94 138.372 229.28 138.372 230.6C138.372 231.27 138.372 231.94 138.292 232.6C138.292 232.85 138.292 233.1 138.292 233.35C139.139 235.539 139.807 237.793 140.292 240.09C140.751 242.538 141.084 245.008 141.292 247.49C141.014 245.258 140.549 243.054 139.902 240.9C139.572 239.74 139.232 238.59 138.902 237.45C137.802 236.93 136.752 236.29 135.692 235.7C134.632 235.11 133.492 234.5 132.392 233.89C130.192 232.69 128.002 231.46 125.732 230.4C125.672 230.4 125.732 230.27 125.792 230.3C128.092 231.3 130.402 232.3 132.662 233.46C133.782 234.03 134.882 234.63 135.982 235.25C136.892 235.76 137.832 236.25 138.702 236.87C138.452 236.11 138.182 235.35 137.892 234.6C137.033 232.548 136.069 230.542 135.002 228.59Z" fill="#263238"/>
<path d="M137.261 223C137.261 222.93 137.381 222.93 137.371 223C137.281 224.39 137.231 225.79 137.081 227.18C137.081 227.196 137.075 227.211 137.063 227.223C137.052 227.234 137.037 227.24 137.021 227.24C137.005 227.24 136.99 227.234 136.979 227.223C136.967 227.211 136.961 227.196 136.961 227.18C137.001 225.77 137.161 224.38 137.261 223Z" fill="#263238"/>
<path d="M124.639 227.66C126.289 228.33 127.949 228.96 129.639 229.66C129.639 229.66 129.639 229.76 129.639 229.74C127.969 229.11 126.329 228.44 124.639 227.79C124.622 227.79 124.605 227.783 124.593 227.771C124.581 227.759 124.574 227.742 124.574 227.725C124.574 227.708 124.581 227.691 124.593 227.679C124.605 227.667 124.622 227.66 124.639 227.66Z" fill="#263238"/>
<path d="M122.139 216.36C123.748 217.101 125.311 217.94 126.819 218.87C126.899 218.87 126.819 219.04 126.749 218.99C125.219 218.1 123.659 217.24 122.079 216.46C121.999 216.42 122.069 216.33 122.139 216.36Z" fill="#263238"/>
<path d="M122.542 335.49H160.512V295.47H122.542V335.49Z" fill="#455A64"/>
<path d="M163.112 309.63H161.172V378.18H163.112V309.63Z" fill="#263238"/>
<path d="M122.069 309.63H120.129V378.18H122.069V309.63Z" fill="#263238"/>
<path d="M141.561 309.63H139.621V378.18H141.561V309.63Z" fill="#263238"/>
<path d="M121.091 338.47H162.141V332.93H121.091V338.47Z" fill="#263238"/>
<path d="M197.14 377.42H170.16V382.16H197.14V377.42Z" fill="#455A64"/>
<path d="M211.773 446.84H208.853L185.092 335.9L183.733 329.58L179.473 309.66L177.882 302.24L171.903 274.37L169.812 264.61H180.193L181.882 274.37L182.993 280.78L183.733 285.05L187.993 309.66L189.373 317.59L211.773 446.84Z" fill="#455A64"/>
<path d="M180.193 264.61L181.882 274.37H171.903L169.812 264.61H180.193Z" fill="#263238"/>
<path d="M189.373 317.59L185.093 335.9L183.733 329.58L179.473 309.66L177.883 302.24L182.993 280.78L183.733 285.05L187.993 309.66L189.373 317.59Z" fill="#263238"/>
<path d="M197.653 264.61L195.563 274.37L187.993 309.66L183.733 329.58L158.613 446.84H155.703L179.473 309.66L183.733 285.05L185.583 274.37L187.273 264.61H197.653Z" fill="#455A64"/>
<path d="M197.652 264.61L195.562 274.37H185.582L187.272 264.61H197.652Z" fill="#263238"/>
<path d="M461.671 377.42H434.691V382.16H461.671V377.42Z" fill="#455A64"/>
<path d="M476.3 446.84H473.38L449.62 335.9L448.26 329.58L444 309.66L442.41 302.24L436.43 274.37L434.34 264.61H444.72L446.41 274.37L447.52 280.78L448.26 285.05L452.52 309.66L453.9 317.59L476.3 446.84Z" fill="#455A64"/>
<path d="M444.72 264.61L446.41 274.37H436.43L434.34 264.61H444.72Z" fill="#263238"/>
<path d="M453.9 317.59L449.62 335.9L448.26 329.58L444 309.66L442.41 302.24L447.52 280.78L448.26 285.05L452.52 309.66L453.9 317.59Z" fill="#263238"/>
<path d="M462.18 264.61L460.09 274.37L452.52 309.66L448.26 329.58L423.14 446.84H420.23L444 309.66L448.26 285.05L450.11 274.37L451.8 264.61H462.18Z" fill="#455A64"/>
<path d="M462.183 264.61L460.093 274.37H450.113L451.803 264.61H462.183Z" fill="#263238"/>
<path d="M482.392 250.35H149.602V264.61H482.392V250.35Z" fill="#455A64"/>
<path d="M386.13 247.12H314.18V250.35H386.13V247.12Z" fill="#A6A6A6"/>
<path d="M350.4 247.12H314.18V250.35H350.4V247.12Z" fill="#DBDBDB"/>
<path d="M356.219 250.34H426.339L436.249 202.72H366.129L356.219 250.34Z" fill="#DBDBDB"/>
<path d="M390.799 227.59C390.719 228.181 390.768 228.782 390.943 229.352C391.118 229.922 391.414 230.447 391.811 230.892C392.209 231.337 392.697 231.69 393.244 231.928C393.791 232.166 394.383 232.283 394.979 232.27C396.259 232.241 397.486 231.752 398.435 230.893C399.385 230.034 399.993 228.861 400.149 227.59C400.227 226.999 400.176 226.398 400 225.829C399.824 225.259 399.526 224.735 399.128 224.291C398.73 223.847 398.241 223.495 397.694 223.258C397.146 223.022 396.555 222.906 395.959 222.92C394.68 222.947 393.455 223.434 392.507 224.292C391.559 225.15 390.952 226.321 390.799 227.59Z" fill="white"/>
<path d="M457.792 114.5C475.117 114.5 489.162 100.455 489.162 83.1298C489.162 65.8046 475.117 51.7598 457.792 51.7598C440.467 51.7598 426.422 65.8046 426.422 83.1298C426.422 100.455 440.467 114.5 457.792 114.5Z" fill="#653333"/>
<path opacity="0.1" d="M459.231 113.76C475.761 113.76 489.161 100.36 489.161 83.8299C489.161 67.3 475.761 53.8999 459.231 53.8999C442.701 53.8999 429.301 67.3 429.301 83.8299C429.301 100.36 442.701 113.76 459.231 113.76Z" fill="black"/>
<path d="M462.634 111.664C478.006 109.785 488.944 95.8005 487.064 80.4289C485.185 65.0572 471.201 54.1195 455.829 55.9987C440.457 57.878 429.52 71.8625 431.399 87.2341C433.278 102.606 447.263 113.544 462.634 111.664Z" fill="white"/>
<path opacity="0.5" d="M486.64 77.88C473.87 85.61 452.88 98.31 441.15 105.26C437.835 102.479 435.21 98.9667 433.48 95L472.28 59C475.907 60.908 479.072 63.587 481.553 66.8486C484.034 70.1103 485.77 73.8756 486.64 77.88Z" fill="#EBEBEB"/>
<path opacity="0.5" d="M487.25 84.8096C487.154 87.929 486.528 91.0095 485.4 93.9196L450.4 110.46C448.875 109.955 447.396 109.319 445.98 108.56C456.57 102.46 475.88 91.3496 487.25 84.8096Z" fill="#EBEBEB"/>
<path d="M459.501 57.8198H458.961V62.0698H459.501V57.8198Z" fill="#C7C7C7"/>
<path d="M446.464 61.1504L445.996 61.4204L448.121 65.101L448.589 64.831L446.464 61.1504Z" fill="#C7C7C7"/>
<path d="M436.829 70.5768L436.559 71.0444L440.239 73.1694L440.509 72.7018L436.829 70.5768Z" fill="#C7C7C7"/>
<path d="M437.473 83.5596H433.223V84.0996H437.473V83.5596Z" fill="#C7C7C7"/>
<path d="M440.255 94.4761L436.574 96.6011L436.844 97.0687L440.525 94.9437L440.255 94.4761Z" fill="#C7C7C7"/>
<path d="M448.1 102.521L445.977 106.203L446.444 106.473L448.567 102.791L448.1 102.521Z" fill="#C7C7C7"/>
<path d="M459.501 105.58H458.961V109.83H459.501V105.58Z" fill="#C7C7C7"/>
<path d="M470.347 102.538L469.879 102.808L472.004 106.489L472.472 106.219L470.347 102.538Z" fill="#C7C7C7"/>
<path d="M478.192 94.4596L477.922 94.9272L481.602 97.0522L481.872 96.5846L478.192 94.4596Z" fill="#C7C7C7"/>
<path d="M485.242 83.5596H480.992V84.0996H485.242V83.5596Z" fill="#C7C7C7"/>
<path d="M481.618 70.5918L477.938 72.7168L478.208 73.1845L481.888 71.0595L481.618 70.5918Z" fill="#C7C7C7"/>
<path d="M472.018 61.1824L469.895 64.8638L470.362 65.1336L472.486 61.4523L472.018 61.1824Z" fill="#C7C7C7"/>
<path d="M475.903 66.2397L456.883 83.9597L458.793 85.8197L476.423 66.7497L475.903 66.2397Z" fill="#455A64"/>
<path d="M453.844 65.4297L458.314 85.6697L460.864 84.9197L454.534 65.2197L453.844 65.4297Z" fill="#263238"/>
<path d="M458.59 83.1796C458.434 83.3523 458.35 83.5782 458.356 83.8109C458.361 84.0436 458.456 84.2653 458.62 84.4305C458.783 84.5957 459.004 84.6918 459.237 84.6991C459.47 84.7064 459.696 84.6242 459.87 84.4696C460.039 84.2975 460.134 84.0659 460.134 83.8246C460.134 83.5833 460.039 83.3517 459.87 83.1796C459.7 83.011 459.47 82.9165 459.23 82.9165C458.991 82.9165 458.761 83.011 458.59 83.1796Z" fill="#653333"/>
<path d="M446.342 209.74H404.082V250.35H446.342V209.74Z" fill="white"/>
<path d="M462.4 209.74H446.34V250.35H462.4V209.74Z" fill="#C7C7C7"/>
<path d="M404.082 230.04H446.342L413.342 231.09L404.082 230.04Z" fill="#C7C7C7"/>
<path d="M446.342 245.44H404.082L437.092 246.49L446.342 245.44Z" fill="#C7C7C7"/>
<path d="M404.082 218.69H430.852L407.062 219.54L404.082 218.69Z" fill="#C7C7C7"/>
<path d="M446.34 239.46H419.57L443.37 240.31L446.34 239.46Z" fill="#C7C7C7"/>
<path d="M414.223 214.17H444.413L439.383 214.68L414.223 214.17Z" fill="#C7C7C7"/>
<path d="M408.191 234.4H438.381L433.351 234.91L408.191 234.4Z" fill="#C7C7C7"/>
<path d="M426.762 222.56H446.342L449.842 223.92L426.762 222.56Z" fill="white"/>
<path d="M398.691 222.56H418.271L421.771 223.92L398.691 222.56Z" fill="#DBDBDB"/>
<path d="M423.82 240.81H404.23L400.73 242.17L423.82 240.81Z" fill="#DBDBDB"/>
<path d="M446.34 236.17H462.07L465.57 237.54L446.34 236.17Z" fill="#C7C7C7"/>
<path d="M451.832 230.04H464.032L462.402 228.93L451.832 230.04Z" fill="#C7C7C7"/>
<path opacity="0.6" d="M182.86 228.78C182.86 228.78 170.18 222.94 170.18 215.11C170.18 207.28 186.63 202.24 186.63 196.11C186.63 189.98 179.46 186.39 179.46 186.39C179.46 186.39 190.78 190.26 190.78 198C190.78 205.74 179.94 211 178.91 215.91C177.47 222.76 182.86 228.78 182.86 228.78Z" fill="#DBDBDB"/>
<path opacity="0.6" d="M182.24 228.78C182.24 228.78 194.91 224.19 194.91 218.03C194.91 211.87 178.47 207.91 178.47 203.1C178.47 198.29 185.64 195.46 185.64 195.46C185.64 195.46 174.32 198.46 174.32 204.59C174.32 210.72 186.76 214.86 187.65 219.8C188.54 224.74 182.24 228.78 182.24 228.78Z" fill="#DBDBDB"/>
<path d="M188.759 248.46H176.699V250.34H188.759V248.46Z" fill="#653333"/>
<path opacity="0.1" d="M188.759 248.46H176.699V249.7H188.759V248.46Z" fill="black"/>
<path d="M203.072 243.4C202.339 244.486 201.309 245.338 200.105 245.854C198.901 246.37 197.573 246.529 196.282 246.31C195.865 246.23 195.457 246.112 195.062 245.96C194.46 245.724 193.887 245.422 193.352 245.06L194.882 242.79C195.169 242.988 195.473 243.159 195.792 243.3C196.67 243.706 197.666 243.78 198.594 243.508C199.523 243.236 200.321 242.636 200.842 241.82C202.492 239.5 203.082 234.19 201.412 232.15C201.302 232 200.812 231.76 198.872 232.15C198.512 232.23 198.102 232.32 197.642 232.44C197.286 232.566 196.917 232.647 196.542 232.68V231.32L196.412 229.96C196.542 229.96 196.732 229.88 196.992 229.81C197.887 229.543 198.804 229.353 199.732 229.24C200.417 229.093 201.128 229.121 201.799 229.322C202.471 229.523 203.08 229.891 203.572 230.39C206.242 233.75 205.142 240.49 203.072 243.4Z" fill="#653333"/>
<path opacity="0.1" d="M194.882 242.79C195.169 242.988 195.473 243.158 195.792 243.3L195.062 245.96C194.46 245.724 193.887 245.422 193.352 245.06L194.882 242.79Z" fill="black"/>
<path opacity="0.1" d="M199.68 229.27L198.87 232.18C198.51 232.26 198.1 232.35 197.64 232.47C197.285 232.596 196.915 232.676 196.54 232.71V231.35L196.41 229.99C196.54 229.99 196.73 229.91 196.99 229.84C197.869 229.576 198.769 229.385 199.68 229.27Z" fill="black"/>
<path d="M166.68 225.72C166.68 225.72 166.79 226.61 166.99 228.03C166.99 228.25 167.06 228.48 167.1 228.72C167.24 229.72 167.43 230.84 167.65 232.08V232.29C167.97 234.07 168.36 236 168.81 237.83C168.81 237.91 168.81 237.99 168.88 238.06C169 238.55 169.14 239.06 169.27 239.5C169.4 239.94 169.54 240.41 169.68 240.85C169.945 241.643 170.252 242.42 170.6 243.18C173.1 248.35 176.6 248.92 178.75 248.92H186.64C188.8 248.92 192.3 248.35 194.79 243.18C194.86 243.02 194.94 242.85 195.01 242.67C195.08 242.49 195.13 242.41 195.18 242.28C195.23 242.15 195.29 242.02 195.34 241.87C195.39 241.72 195.41 241.68 195.45 241.58C195.963 240.112 196.394 238.616 196.74 237.1C196.744 237.037 196.744 236.973 196.74 236.91C196.74 236.91 196.74 236.91 196.74 236.83C196.89 236.19 197.03 235.54 197.16 234.9C197.39 233.84 197.59 232.8 197.76 231.81C197.83 231.36 197.91 230.92 197.98 230.49L198.04 230.14C198.09 229.86 198.13 229.58 198.17 229.31C198.21 229.04 198.25 228.79 198.29 228.55C198.33 228.31 198.35 228.07 198.39 227.85C198.58 226.54 198.67 225.72 198.67 225.72H166.68Z" fill="#653333"/>
<path opacity="0.1" d="M167.68 232.29C168 234.07 168.39 236 168.84 237.83C169.042 237.852 169.243 237.889 169.44 237.94C170.406 238.164 171.324 238.56 172.15 239.11C172.96 239.668 173.717 240.301 174.41 241C175.088 241.685 175.824 242.311 176.61 242.87C177.394 243.392 178.308 243.686 179.25 243.72C179.708 243.707 180.159 243.599 180.574 243.403C180.989 243.206 181.359 242.926 181.66 242.58C182.327 241.89 182.93 241.14 183.46 240.34C184.009 239.521 184.603 238.733 185.24 237.98C185.571 237.606 185.944 237.271 186.35 236.98C186.572 236.84 186.807 236.72 187.05 236.62C187.301 236.533 187.564 236.489 187.83 236.49C188.357 236.479 188.878 236.606 189.34 236.86C189.779 237.108 190.186 237.41 190.55 237.76C191.29 238.43 191.91 239.2 192.55 239.91C193.124 240.665 193.901 241.24 194.79 241.57C195.014 241.62 195.246 241.62 195.47 241.57C195.983 240.102 196.414 238.606 196.76 237.09C196.51 237.02 196.24 236.96 195.99 236.87C195.047 236.56 194.169 236.078 193.4 235.45C192.651 234.811 191.958 234.108 191.33 233.35C190.72 232.604 190.051 231.909 189.33 231.27C188.601 230.673 187.722 230.289 186.79 230.16C186.331 230.131 185.872 230.197 185.44 230.353C185.008 230.51 184.613 230.754 184.28 231.07C183.554 231.674 182.884 232.344 182.28 233.07C181.65 233.83 180.982 234.557 180.28 235.25C179.919 235.603 179.516 235.908 179.08 236.16C178.844 236.276 178.6 236.373 178.35 236.45C178.087 236.51 177.818 236.53 177.55 236.51C177.025 236.465 176.521 236.282 176.09 235.98C175.676 235.695 175.3 235.359 174.97 234.98C174.3 234.25 173.76 233.42 173.18 232.65C172.682 231.843 171.968 231.192 171.12 230.77C170.661 230.675 170.186 230.695 169.737 230.83C169.289 230.964 168.88 231.208 168.55 231.54C168.25 231.81 168 232.05 167.68 232.29Z" fill="black"/>
<path d="M167.648 232.08V232.29C167.938 232.05 168.218 231.81 168.508 231.59C168.839 231.258 169.247 231.014 169.696 230.88C170.145 230.745 170.62 230.725 171.078 230.82C171.927 231.242 172.641 231.893 173.138 232.7C173.718 233.47 174.258 234.3 174.928 235.03C175.258 235.409 175.635 235.745 176.048 236.03C176.48 236.332 176.984 236.515 177.508 236.56C177.777 236.58 178.046 236.56 178.308 236.5C178.559 236.423 178.803 236.326 179.038 236.21C179.475 235.958 179.878 235.653 180.238 235.3C180.941 234.607 181.609 233.88 182.238 233.12C182.843 232.394 183.512 231.724 184.238 231.12C184.572 230.804 184.967 230.56 185.399 230.403C185.83 230.247 186.29 230.181 186.748 230.21C187.681 230.339 188.56 230.723 189.288 231.32C190.01 231.959 190.679 232.654 191.288 233.4C191.917 234.158 192.609 234.861 193.358 235.5C194.127 236.128 195.005 236.61 195.948 236.92C196.198 237.01 196.468 237.07 196.718 237.14C196.723 237.077 196.723 237.013 196.718 236.95C196.468 236.87 196.218 236.8 195.968 236.7C194.175 235.978 192.629 234.752 191.518 233.17C190.92 232.386 190.251 231.66 189.518 231C188.731 230.357 187.784 229.939 186.778 229.79C186.26 229.752 185.74 229.821 185.249 229.993C184.759 230.165 184.309 230.436 183.928 230.79C183.171 231.424 182.475 232.127 181.848 232.89C181.198 233.63 180.588 234.38 179.848 235.04C179.553 235.392 179.186 235.677 178.772 235.877C178.359 236.076 177.908 236.187 177.448 236.2C176.527 236.061 175.698 235.565 175.138 234.82C174.498 234.11 173.938 233.31 173.338 232.53C172.78 231.685 171.993 231.015 171.068 230.6C170.571 230.451 170.037 230.479 169.558 230.68C169.093 230.875 168.661 231.141 168.278 231.47C168.059 231.663 167.849 231.867 167.648 232.08Z" fill="white"/>
<path d="M168.84 237.83C168.84 237.91 168.84 237.99 168.91 238.06L169.38 238.17C171.24 238.714 172.903 239.784 174.17 241.25C174.841 241.99 175.585 242.66 176.39 243.25C177.238 243.815 178.222 244.14 179.24 244.19C179.765 244.183 180.283 244.064 180.758 243.842C181.234 243.619 181.657 243.298 182 242.9C182.695 242.196 183.324 241.429 183.88 240.61C184.414 239.803 184.992 239.025 185.61 238.28C185.868 237.903 186.203 237.584 186.592 237.345C186.981 237.105 187.417 236.951 187.87 236.89C188.803 236.938 189.679 237.351 190.31 238.04C191.02 238.68 191.65 239.43 192.31 240.14C192.943 240.927 193.785 241.52 194.74 241.85C194.952 241.885 195.168 241.885 195.38 241.85C195.38 241.76 195.45 241.66 195.49 241.56C195.266 241.61 195.034 241.61 194.81 241.56C193.921 241.23 193.144 240.655 192.57 239.9C191.92 239.19 191.3 238.42 190.57 237.75C190.206 237.401 189.799 237.098 189.36 236.85C188.898 236.596 188.377 236.469 187.85 236.48C187.584 236.479 187.321 236.523 187.07 236.61C186.827 236.71 186.593 236.831 186.37 236.97C185.964 237.261 185.592 237.597 185.26 237.97C184.623 238.723 184.029 239.511 183.48 240.33C182.95 241.131 182.347 241.88 181.68 242.57C181.379 242.916 181.009 243.197 180.594 243.393C180.18 243.589 179.729 243.697 179.27 243.71C178.328 243.676 177.414 243.382 176.63 242.86C175.844 242.301 175.108 241.676 174.43 240.99C173.737 240.291 172.98 239.659 172.17 239.1C171.344 238.551 170.426 238.154 169.46 237.93C169.256 237.881 169.049 237.848 168.84 237.83Z" fill="white"/>
<path d="M482.222 372.68C483.572 373.12 484.782 374.11 485.552 372.79C486.322 371.47 488.392 371.86 489.162 371.58C489.932 371.3 491.002 369.08 490.952 368.38C490.902 367.68 490.322 366.97 490.322 366.31C490.322 365.65 490.322 364.68 490.202 363.77C490.242 363.195 490.116 362.619 489.837 362.114C489.559 361.608 489.14 361.194 488.632 360.92C487.646 360.509 486.577 360.337 485.512 360.42C484.632 360.33 483.982 358.91 482.212 358.36C480.442 357.81 478.142 359.79 477.932 360.58C477.722 361.37 477.572 363.77 476.932 364.67C476.292 365.57 475.352 365.27 475.202 366.38C475.052 367.49 475.102 369.32 475.422 369.65C475.742 369.98 476.612 369.49 477.002 370.16C477.392 370.83 477.742 372.59 478.552 373C479.362 373.41 481.192 372.34 482.222 372.68Z" fill="#EBEBEB"/>
<path d="M467.571 318.7L465.861 320.43L465.801 319.8V319.79L466.891 318.7H467.571Z" fill="#263238"/>
<path d="M474.103 318.7L468.253 324.59L466.362 326.46L466.323 326.07V326.06L466.312 325.84L467.893 324.24L473.462 318.7H474.103Z" fill="#263238"/>
<path d="M480.63 318.7L471.51 327.87L466.88 332.48L466.87 332.39L466.82 331.88L471.17 327.51L480.04 318.7H480.63Z" fill="#263238"/>
<path d="M487.152 318.7L474.802 331.14L467.382 338.5L467.332 337.93L474.442 330.79L486.602 318.7H487.152Z" fill="#263238"/>
<path d="M493.651 318.7C492.771 319.61 491.881 320.51 490.991 321.41L478.061 334.41L467.891 344.52V343.98L477.751 334.05L490.751 321.13C491.571 320.31 492.401 319.5 493.231 318.69L493.651 318.7Z" fill="#263238"/>
<path d="M500.152 318.7C498.192 320.7 496.229 322.7 494.262 324.7L481.342 337.7L468.402 350.54V350.04L481.002 337.34L494.002 324.41L499.802 318.7H500.152Z" fill="#263238"/>
<path d="M506.612 318.7C503.605 321.8 500.579 324.887 497.532 327.96L484.612 340.96L471.612 353.89C470.722 354.78 469.822 355.66 468.922 356.54V356.12C469.732 355.28 470.562 354.45 471.382 353.62L484.312 340.62L497.312 327.7C500.352 324.694 503.405 321.694 506.472 318.7H506.612Z" fill="#263238"/>
<path d="M513.001 318.77C508.961 322.93 504.905 327.07 500.831 331.19L487.901 344.19L474.901 357.11L469.441 362.48V362.15C471.175 360.383 472.915 358.613 474.661 356.84L487.581 343.84L500.581 330.92C504.675 326.867 508.815 322.817 513.001 318.77Z" fill="#263238"/>
<path d="M512.393 325.82V326.04C509.633 328.86 506.87 331.674 504.103 334.48L491.183 347.48L478.183 360.41C475.456 363.11 472.713 365.804 469.953 368.49V368.29C472.62 365.57 475.286 362.86 477.953 360.16L490.873 347.16L503.873 334.23C506.686 331.41 509.526 328.607 512.393 325.82Z" fill="#263238"/>
<path d="M511.794 332.88V333.32L507.404 337.78L494.474 350.78L481.474 363.7C477.934 367.2 474.377 370.687 470.804 374.16H470.684C474.164 370.56 477.667 366.983 481.194 363.43L494.124 350.43L507.124 337.51L511.794 332.88Z" fill="#263238"/>
<path d="M511.192 340L511.142 340.57L510.632 341.09L497.712 354.09L484.702 367C482.268 369.407 479.832 371.803 477.392 374.19H477.102C479.542 371.697 481.985 369.21 484.432 366.73L497.352 353.73L510.352 340.8L511.192 340Z" fill="#263238"/>
<path d="M510.582 347.09L510.532 347.72L501.002 357.33L488.002 370.26L484.002 374.17H483.582C484.955 372.77 486.329 371.377 487.702 369.99L500.632 356.99L510.582 347.09Z" fill="#263238"/>
<path d="M510.002 354.21L509.942 354.9L504.272 360.61L491.272 373.53L490.622 374.17H490.102L491.002 373.26L503.922 360.26L510.002 354.21Z" fill="#263238"/>
<path d="M509.383 361.34L509.313 362.09L507.543 363.88L497.183 374.17H496.613L507.183 363.53L509.383 361.34Z" fill="#263238"/>
<path d="M508.773 368.49V368.52L508.713 369.24L503.753 374.17H503.133L508.773 368.49Z" fill="#263238"/>
<path d="M512.903 319.79L512.853 320.44L511.133 318.7H511.813L512.903 319.79Z" fill="#263238"/>
<path d="M512.392 325.84L512.332 326.46L510.452 324.59L504.602 318.7H505.242L510.812 324.24L512.392 325.84Z" fill="#263238"/>
<path d="M511.883 331.88L511.832 332.39L511.823 332.49L507.182 327.87L498.062 318.7H498.673L507.543 327.51L511.883 331.88Z" fill="#263238"/>
<path d="M511.371 337.94L511.311 338.51L503.901 331.14L491.551 318.7H492.101L504.251 330.79L511.371 337.94Z" fill="#263238"/>
<path d="M510.853 344L510.803 344.53L500.633 334.42L487.703 321.42C486.813 320.52 485.923 319.62 485.043 318.71H485.493C486.323 319.52 487.153 320.33 487.973 321.15L500.973 334.07L510.853 344Z" fill="#263238"/>
<path d="M510.332 350V350.5L497.392 337.65L484.472 324.65C482.472 322.65 480.509 320.65 478.582 318.65H478.942L484.742 324.36L497.742 337.29L510.332 350Z" fill="#263238"/>
<path d="M509.821 356.12V356.55L507.121 353.89L494.121 340.96L481.191 327.96C478.164 324.88 475.141 321.794 472.121 318.7H472.311C475.371 321.68 478.424 324.68 481.471 327.7L494.471 340.62L507.401 353.62L509.821 356.12Z" fill="#263238"/>
<path d="M509.302 362.2V362.53C507.472 360.76 505.652 358.96 503.832 357.16L490.832 344.24L477.912 331.24C473.832 327.12 469.776 322.98 465.742 318.82C469.916 322.84 474.052 326.9 478.152 331L491.152 343.92L504.072 356.92C505.832 358.674 507.576 360.434 509.302 362.2Z" fill="#263238"/>
<path d="M508.792 368.29V368.52C506.032 365.853 503.288 363.16 500.562 360.44L487.562 347.51L474.642 334.51C471.868 331.71 469.105 328.897 466.352 326.07V325.83C469.225 328.623 472.085 331.427 474.932 334.24L487.932 347.17L500.862 360.17C503.502 362.863 506.145 365.57 508.792 368.29Z" fill="#263238"/>
<path d="M508.051 374.17H507.931C504.365 370.697 500.808 367.21 497.261 363.71L484.261 350.79L471.331 337.79L466.941 333.33V332.89C468.515 334.43 470.081 335.973 471.641 337.52L484.641 350.44L497.561 363.44C501.051 367 504.571 370.57 508.051 374.17Z" fill="#263238"/>
<path d="M501.592 374.17H501.302C498.848 371.777 496.412 369.38 493.992 366.98L480.992 354.06L468.072 341.06L467.562 340.54L467.512 339.98C467.792 340.24 468.062 340.52 468.342 340.79L481.342 353.72L494.262 366.72C496.708 369.193 499.152 371.677 501.592 374.17Z" fill="#263238"/>
<path d="M495.104 374.17H494.694C493.36 372.87 492.027 371.567 490.694 370.26L477.694 357.33L468.144 347.73L468.094 347.09L478.044 356.98L491.004 370C492.364 371.38 493.744 372.77 495.104 374.17Z" fill="#263238"/>
<path d="M488.613 374.17H488.093L487.443 373.53L474.443 360.61L468.783 354.91L468.723 354.21L474.803 360.21L487.723 373.21L488.613 374.17Z" fill="#263238"/>
<path d="M482.103 374.17H481.522L471.173 363.88L469.383 362.09V362.08L469.312 361.35L471.513 363.53L482.103 374.17Z" fill="#263238"/>
<path d="M475.564 374.17H474.944L469.994 369.24L469.934 368.49L475.564 374.17Z" fill="#263238"/>
<path d="M466.203 318.789L465.207 318.879L470.255 374.24L471.251 374.149L466.203 318.789Z" fill="#263238"/>
<path d="M512.672 318.798L507.566 374.153L508.562 374.245L513.668 318.89L512.672 318.798Z" fill="#263238"/>
<path d="M515.833 312.64H462.793V321.62H515.833V312.64Z" fill="#263238"/>
<path d="M510.362 369.36H468.262V378.34H510.362V369.36Z" fill="#263238"/>
<path d="M506.66 366C508.25 365.77 510.3 365.77 510.42 366.68C510.54 367.59 509.81 368.08 510.04 368.54C510.27 369 511.56 369.83 512.16 370.44C512.668 370.972 513.036 371.621 513.23 372.33C513.23 372.56 513.6 372.94 513.23 373.4C512.86 373.86 512.63 374.54 512.32 374.88C512.229 374.965 512.156 375.068 512.107 375.183C512.057 375.297 512.031 375.421 512.031 375.545C512.031 375.67 512.057 375.793 512.107 375.908C512.156 376.022 512.229 376.125 512.32 376.21C512.77 376.81 512.39 378.56 511.71 379.21C511.03 379.86 509.05 378.37 508.44 378.52C507.83 378.67 507.76 378.98 507.23 379.36C506.301 380.085 505.176 380.517 504 380.6C502.63 380.6 501.95 379.38 501.12 378.85C500.367 378.465 499.576 378.16 498.76 377.94C498.077 377.671 497.476 377.226 497.02 376.65C496.87 376.35 496.33 376.27 496.56 375.44C496.79 374.61 497.17 374.37 497.17 373.69C497.17 373.01 497.17 372.89 497.17 372.11C497.17 371.33 496.56 369.97 497.09 369.36C497.62 368.75 498 367.85 498.84 367.85C499.68 367.85 502.33 368.3 502.33 368.3C502.613 367.99 502.867 367.655 503.09 367.3C503.283 366.983 503.553 366.72 503.875 366.535C504.196 366.349 504.559 366.248 504.93 366.24C505.516 366.254 506.1 366.173 506.66 366Z" fill="white"/>
<path d="M497.211 373.69C498.291 374.19 499.401 374.64 500.511 375.08C501.621 375.52 502.711 375.98 503.831 376.39C504.92 376.812 506.032 377.172 507.161 377.47C507.389 377.529 507.625 377.556 507.861 377.55L508.531 377.22C509.039 376.962 509.524 376.661 509.981 376.32C510.423 376.021 510.8 375.637 511.091 375.19C511.154 375.089 511.208 374.982 511.251 374.87L511.301 374.7V374.63C511.236 374.444 511.137 374.272 511.011 374.12C510.224 373.28 509.352 372.523 508.411 371.86C507.461 371.15 506.471 370.49 505.461 369.86C504.971 369.54 504.461 369.22 503.941 368.93C503.691 368.78 503.421 368.64 503.161 368.51C502.901 368.38 502.891 368.38 502.751 368.33C502.611 368.28 502.451 368.19 502.351 368.33C502.441 368.19 502.641 368.28 502.781 368.33L503.211 368.44L504.061 368.76C504.621 368.99 505.161 369.24 505.711 369.5C506.781 370.05 507.821 370.65 508.841 371.29C509.9 371.928 510.872 372.701 511.731 373.59C512.017 373.874 512.203 374.242 512.261 374.64C512.271 374.717 512.271 374.794 512.261 374.87V375.01L512.181 375.27C512.118 375.437 512.041 375.597 511.951 375.75C511.602 376.319 511.143 376.812 510.601 377.2C510.092 377.571 509.557 377.905 509.001 378.2L508.591 378.4L508.381 378.5L508.271 378.55C508.196 378.576 508.119 378.596 508.041 378.61C507.681 378.642 507.317 378.604 506.971 378.5C505.801 378.165 504.66 377.734 503.561 377.21C501.354 376.209 499.23 375.031 497.211 373.69Z" fill="#C7C7C7"/>
<path d="M501.742 375.75C502.334 374.822 503.003 373.946 503.742 373.13C504.092 372.71 504.482 372.32 504.872 371.93C505.073 371.733 505.283 371.546 505.502 371.37C505.746 371.161 506.014 370.983 506.302 370.84L506.452 370.78C506.558 370.765 506.666 370.765 506.772 370.78C506.932 370.815 507.077 370.894 507.192 371.01C507.305 371.129 507.409 371.256 507.502 371.39C507.67 371.621 507.823 371.861 507.962 372.11C508.222 372.6 508.482 373.11 508.702 373.59C509.16 374.59 509.496 375.641 509.702 376.72L508.002 374C507.702 373.55 507.442 373.08 507.142 372.64C507.002 372.43 506.852 372.2 506.712 372.01C506.649 371.924 506.579 371.844 506.502 371.77C506.502 371.77 506.502 371.77 506.572 371.77C506.611 371.785 506.654 371.785 506.692 371.77C506.495 371.867 506.31 371.988 506.142 372.13L505.542 372.63L504.322 373.68C503.452 374.38 502.622 375.09 501.742 375.75Z" fill="#C7C7C7"/>
<path d="M481.551 382.33C480.691 382.54 479.551 382.64 479.461 382.15C479.371 381.66 479.721 381.35 479.571 381.15C479.174 380.81 478.753 380.499 478.311 380.22C478.004 379.95 477.77 379.606 477.631 379.22C477.631 379.1 477.391 378.91 477.581 378.64C477.771 378.37 477.841 377.99 477.991 377.78C478.141 377.57 478.201 377.37 477.931 377.06C477.809 376.793 477.761 376.498 477.792 376.205C477.824 375.913 477.934 375.635 478.111 375.4C478.451 375.04 479.611 375.72 479.931 375.61C480.251 375.5 480.291 375.33 480.561 375.09C481.021 374.639 481.607 374.335 482.241 374.22C482.991 374.15 483.421 374.78 483.911 375.03C484.339 375.205 484.785 375.333 485.241 375.41C485.622 375.523 485.967 375.733 486.241 376.02C486.341 376.18 486.631 376.2 486.551 376.67C486.471 377.14 486.271 377.28 486.311 377.67C486.351 378.06 486.311 378.11 486.381 378.54C486.451 378.97 486.831 379.68 486.571 380.04C486.311 380.4 486.151 380.92 485.691 380.96C485.231 381 483.751 380.89 483.751 380.89C483.613 381.072 483.492 381.266 483.391 381.47C483.302 381.654 483.169 381.813 483.003 381.931C482.837 382.05 482.644 382.125 482.441 382.15C482.137 382.167 481.837 382.228 481.551 382.33Z" fill="white"/>
<path d="M478.25 377.45C478.71 376.96 479.25 376.52 479.68 376.06L480.04 375.73L480.23 375.56C480.337 375.476 480.459 375.415 480.59 375.38C480.941 375.299 481.3 375.256 481.66 375.25C482.352 375.217 483.045 375.254 483.73 375.36C484.118 375.409 484.494 375.528 484.84 375.71C485.085 375.865 485.261 376.108 485.33 376.39C485.389 376.595 485.416 376.807 485.41 377.02C485.367 377.741 485.208 378.45 484.94 379.12C484.812 379.445 484.665 379.762 484.5 380.07C484.411 380.237 484.311 380.397 484.2 380.55C484.058 380.74 483.868 380.888 483.65 380.98C482.957 381.172 482.232 381.22 481.52 381.12C480.847 381.045 480.179 380.928 479.52 380.77C480.19 380.77 480.85 380.71 481.52 380.63C482.135 380.604 482.742 380.483 483.32 380.27C483.45 380.2 483.41 380.2 483.51 380.07L483.72 379.68C483.846 379.393 483.957 379.099 484.05 378.8C484.257 378.228 484.378 377.628 484.41 377.02C484.422 376.836 484.504 376.664 484.64 376.54C484.284 376.428 483.919 376.345 483.55 376.29C482.923 376.159 482.289 376.069 481.65 376.02C481.344 376 481.036 376 480.73 376.02C480.67 376.02 480.61 376.02 480.63 376.02L480.42 376.15L480 376.43C479.41 376.77 478.85 377.14 478.25 377.45Z" fill="#C7C7C7"/>
<path d="M480.323 376.18C480.323 376.82 480.323 377.43 480.383 377.99C480.383 378.25 480.463 378.57 480.533 378.59H480.593C480.709 378.598 480.826 378.598 480.943 378.59C481.473 378.5 482.053 378.34 482.643 378.21C483.248 378.065 483.863 377.968 484.483 377.92C484.003 378.323 483.472 378.659 482.903 378.92C482.336 379.213 481.73 379.422 481.103 379.54C480.913 379.561 480.722 379.561 480.533 379.54C480.399 379.531 480.267 379.501 480.143 379.45C479.995 379.38 479.87 379.269 479.783 379.13C479.596 378.77 479.542 378.356 479.633 377.96C479.731 377.324 479.966 376.716 480.323 376.18Z" fill="#C7C7C7"/>
<path d="M474.312 369.31C473.872 367.96 473.942 366.4 472.432 366.57C470.922 366.74 470.002 364.83 469.312 364.38C468.622 363.93 466.202 364.38 465.672 364.83C465.142 365.28 464.912 366.18 464.382 366.57C463.852 366.96 463.092 367.57 462.382 368.17C461.885 368.482 461.491 368.932 461.248 369.465C461.004 369.998 460.922 370.591 461.012 371.17C461.27 372.205 461.762 373.167 462.452 373.98C462.912 374.74 462.152 376.11 462.762 377.85C463.372 379.59 466.322 380.28 467.082 379.98C467.842 379.68 469.872 378.39 470.982 378.39C472.092 378.39 472.402 379.3 473.382 378.77C474.362 378.24 475.812 377.1 475.892 376.64C475.972 376.18 475.052 375.78 475.362 375.07C475.672 374.36 476.872 373.07 476.722 372.14C476.572 371.21 474.652 370.35 474.312 369.31Z" fill="white"/>
<path d="M471.504 366.41C469.629 367.008 467.797 367.737 466.024 368.59C465.828 368.69 465.644 368.811 465.474 368.95C465.414 368.95 465.364 369.3 465.324 369.51C465.234 369.98 465.184 370.51 465.124 370.96C465.017 371.93 464.961 372.905 464.954 373.88C464.941 374.351 464.965 374.823 465.024 375.29C465.041 375.42 465.075 375.548 465.124 375.67C465.296 375.748 465.477 375.801 465.664 375.83C466.607 375.973 467.561 376.02 468.514 375.97C469.004 375.97 469.514 375.92 469.944 375.86C470.374 375.8 470.944 375.66 471.374 375.57C472.374 375.38 473.314 375.19 474.244 374.95C474.464 374.89 474.704 374.83 474.894 374.76L475.004 374.71C474.969 374.734 474.945 374.77 474.934 374.81C474.91 374.867 474.897 374.928 474.897 374.99C474.897 375.052 474.91 375.113 474.934 375.17C474.951 375.233 474.982 375.291 475.024 375.34L475.084 375.39L474.954 375.34C474.534 375.2 474.034 375.09 473.564 374.97L470.674 374.33C469.674 374.12 468.744 373.9 467.774 373.66C467.294 373.54 466.774 373.41 466.324 373.24C466.026 373.153 465.748 373.011 465.504 372.82L465.414 372.71C465.386 372.652 465.363 372.592 465.344 372.53V372.35C465.346 372.255 465.363 372.16 465.394 372.07C465.438 371.93 465.498 371.796 465.574 371.67C466.096 370.788 466.728 369.975 467.454 369.25C467.627 369.064 467.811 368.887 468.004 368.72C468.094 368.64 468.194 368.55 468.304 368.47L468.464 368.35C468.539 368.294 468.624 368.25 468.714 368.22C468.812 368.203 468.912 368.207 469.009 368.231C469.105 368.255 469.195 368.299 469.274 368.36C469.392 368.436 469.502 368.523 469.604 368.62C469.793 368.798 469.97 368.988 470.134 369.19C471.338 370.768 472.415 372.44 473.354 374.19C472.253 372.559 471.054 370.996 469.764 369.51C469.594 369.34 469.424 369.16 469.254 369.02C469.141 368.913 469.008 368.828 468.864 368.77L468.794 368.82L468.664 368.92C468.574 368.99 468.494 369.08 468.404 369.16C468.314 369.24 468.074 369.5 467.914 369.68C467.27 370.389 466.713 371.171 466.254 372.01C466.209 372.099 466.175 372.193 466.154 372.29C466.154 372.29 466.154 372.38 466.154 372.37C466.158 372.337 466.158 372.303 466.154 372.27C466.32 372.357 466.494 372.428 466.674 372.48C467.124 372.62 467.604 372.74 468.074 372.85C469.074 373.08 469.994 373.27 470.954 373.47L474.664 374.18C475.154 374.29 474.834 374.28 475.354 374.44L475.564 374.52L475.714 374.6C475.764 374.631 475.811 374.668 475.854 374.71C475.908 374.771 475.949 374.843 475.974 374.92C476.023 375.049 476.023 375.191 475.974 375.32C475.914 375.403 475.844 375.477 475.764 375.54C475.721 375.576 475.674 375.606 475.624 375.63L475.404 375.73C475.153 375.827 474.895 375.907 474.634 375.97C473.634 376.21 472.634 376.38 471.704 376.56C471.194 376.64 470.784 376.74 470.224 376.83C469.716 376.893 469.205 376.926 468.694 376.93C467.673 376.962 466.652 376.895 465.644 376.73C465.339 376.679 465.047 376.571 464.784 376.41C464.614 376.279 464.492 376.097 464.434 375.89C464.39 375.75 464.364 375.606 464.354 375.46C464.309 374.944 464.309 374.426 464.354 373.91C464.409 372.905 464.515 371.904 464.674 370.91C464.754 370.41 464.834 369.91 464.944 369.43C465.034 369.17 464.944 368.95 465.274 368.61C465.487 368.437 465.723 368.292 465.974 368.18C466.893 367.792 467.835 367.458 468.794 367.18C469.574 366.87 470.534 366.61 471.504 366.41Z" fill="#C7C7C7"/>
</svg>
